<?xml version="1.0" encoding="utf-8" standalone="no"?>
<!DOCTYPE svg PUBLIC "-//W3C//DTD SVG 1.1//EN"
  "http://www.w3.org/Graphics/SVG/1.1/DTD/svg11.dtd">
<!-- Created with matplotlib (https://matplotlib.org/) -->
<svg height="268.761119pt" version="1.1" viewBox="0 0 383.226822 268.761119" width="383.226822pt" xmlns="http://www.w3.org/2000/svg" xmlns:xlink="http://www.w3.org/1999/xlink">
 <metadata>
  <rdf:RDF xmlns:cc="http://creativecommons.org/ns#" xmlns:dc="http://purl.org/dc/elements/1.1/" xmlns:rdf="http://www.w3.org/1999/02/22-rdf-syntax-ns#">
   <cc:Work>
    <dc:type rdf:resource="http://purl.org/dc/dcmitype/StillImage"/>
    <dc:date>2021-09-01T20:34:22.281987</dc:date>
    <dc:format>image/svg+xml</dc:format>
    <dc:creator>
     <cc:Agent>
      <dc:title>Matplotlib v3.3.4, https://matplotlib.org/</dc:title>
     </cc:Agent>
    </dc:creator>
   </cc:Work>
  </rdf:RDF>
 </metadata>
 <defs>
  <style type="text/css">*{stroke-linecap:butt;stroke-linejoin:round;}</style>
 </defs>
 <g id="figure_1">
  <g id="patch_1">
   <path d="M 0 268.761119 
L 383.226822 268.761119 
L 383.226822 0 
L 0 0 
z
" style="fill:none;"/>
  </g>
  <g id="axes_1">
   <g id="patch_2">
    <path d="M 41.226822 203.44368 
L 376.026822 203.44368 
L 376.026822 7.60368 
L 41.226822 7.60368 
z
" style="fill:#ffffff;"/>
   </g>
   <g id="matplotlib.axis_1">
    <g id="xtick_1">
     <g id="line2d_1">
      <defs>
       <path d="M 0 0 
L 0 3.5 
" id="mff8b6b0474" style="stroke:#000000;stroke-width:0.8;"/>
      </defs>
      <g>
       <use style="stroke:#000000;stroke-width:0.8;" x="62.36867" xlink:href="#mff8b6b0474" y="203.44368"/>
      </g>
     </g>
     <g id="text_1">
      <!-- 2019-05-08 -->
      <g transform="translate(10.999219 246.081932)rotate(-30)scale(0.1 -0.1)">
       <defs>
        <path d="M 19.1875 8.296875 
L 53.609375 8.296875 
L 53.609375 0 
L 7.328125 0 
L 7.328125 8.296875 
Q 12.9375 14.109375 22.625 23.890625 
Q 32.328125 33.6875 34.8125 36.53125 
Q 39.546875 41.84375 41.421875 45.53125 
Q 43.3125 49.21875 43.3125 52.78125 
Q 43.3125 58.59375 39.234375 62.25 
Q 35.15625 65.921875 28.609375 65.921875 
Q 23.96875 65.921875 18.8125 64.3125 
Q 13.671875 62.703125 7.8125 59.421875 
L 7.8125 69.390625 
Q 13.765625 71.78125 18.9375 73 
Q 24.125 74.21875 28.421875 74.21875 
Q 39.75 74.21875 46.484375 68.546875 
Q 53.21875 62.890625 53.21875 53.421875 
Q 53.21875 48.921875 51.53125 44.890625 
Q 49.859375 40.875 45.40625 35.40625 
Q 44.1875 33.984375 37.640625 27.21875 
Q 31.109375 20.453125 19.1875 8.296875 
z
" id="DejaVuSans-50"/>
        <path d="M 31.78125 66.40625 
Q 24.171875 66.40625 20.328125 58.90625 
Q 16.5 51.421875 16.5 36.375 
Q 16.5 21.390625 20.328125 13.890625 
Q 24.171875 6.390625 31.78125 6.390625 
Q 39.453125 6.390625 43.28125 13.890625 
Q 47.125 21.390625 47.125 36.375 
Q 47.125 51.421875 43.28125 58.90625 
Q 39.453125 66.40625 31.78125 66.40625 
z
M 31.78125 74.21875 
Q 44.046875 74.21875 50.515625 64.515625 
Q 56.984375 54.828125 56.984375 36.375 
Q 56.984375 17.96875 50.515625 8.265625 
Q 44.046875 -1.421875 31.78125 -1.421875 
Q 19.53125 -1.421875 13.0625 8.265625 
Q 6.59375 17.96875 6.59375 36.375 
Q 6.59375 54.828125 13.0625 64.515625 
Q 19.53125 74.21875 31.78125 74.21875 
z
" id="DejaVuSans-48"/>
        <path d="M 12.40625 8.296875 
L 28.515625 8.296875 
L 28.515625 63.921875 
L 10.984375 60.40625 
L 10.984375 69.390625 
L 28.421875 72.90625 
L 38.28125 72.90625 
L 38.28125 8.296875 
L 54.390625 8.296875 
L 54.390625 0 
L 12.40625 0 
z
" id="DejaVuSans-49"/>
        <path d="M 10.984375 1.515625 
L 10.984375 10.5 
Q 14.703125 8.734375 18.5 7.8125 
Q 22.3125 6.890625 25.984375 6.890625 
Q 35.75 6.890625 40.890625 13.453125 
Q 46.046875 20.015625 46.78125 33.40625 
Q 43.953125 29.203125 39.59375 26.953125 
Q 35.25 24.703125 29.984375 24.703125 
Q 19.046875 24.703125 12.671875 31.3125 
Q 6.296875 37.9375 6.296875 49.421875 
Q 6.296875 60.640625 12.9375 67.421875 
Q 19.578125 74.21875 30.609375 74.21875 
Q 43.265625 74.21875 49.921875 64.515625 
Q 56.59375 54.828125 56.59375 36.375 
Q 56.59375 19.140625 48.40625 8.859375 
Q 40.234375 -1.421875 26.421875 -1.421875 
Q 22.703125 -1.421875 18.890625 -0.6875 
Q 15.09375 0.046875 10.984375 1.515625 
z
M 30.609375 32.421875 
Q 37.25 32.421875 41.125 36.953125 
Q 45.015625 41.5 45.015625 49.421875 
Q 45.015625 57.28125 41.125 61.84375 
Q 37.25 66.40625 30.609375 66.40625 
Q 23.96875 66.40625 20.09375 61.84375 
Q 16.21875 57.28125 16.21875 49.421875 
Q 16.21875 41.5 20.09375 36.953125 
Q 23.96875 32.421875 30.609375 32.421875 
z
" id="DejaVuSans-57"/>
        <path d="M 4.890625 31.390625 
L 31.203125 31.390625 
L 31.203125 23.390625 
L 4.890625 23.390625 
z
" id="DejaVuSans-45"/>
        <path d="M 10.796875 72.90625 
L 49.515625 72.90625 
L 49.515625 64.59375 
L 19.828125 64.59375 
L 19.828125 46.734375 
Q 21.96875 47.46875 24.109375 47.828125 
Q 26.265625 48.1875 28.421875 48.1875 
Q 40.625 48.1875 47.75 41.5 
Q 54.890625 34.8125 54.890625 23.390625 
Q 54.890625 11.625 47.5625 5.09375 
Q 40.234375 -1.421875 26.90625 -1.421875 
Q 22.3125 -1.421875 17.546875 -0.640625 
Q 12.796875 0.140625 7.71875 1.703125 
L 7.71875 11.625 
Q 12.109375 9.234375 16.796875 8.0625 
Q 21.484375 6.890625 26.703125 6.890625 
Q 35.15625 6.890625 40.078125 11.328125 
Q 45.015625 15.765625 45.015625 23.390625 
Q 45.015625 31 40.078125 35.4375 
Q 35.15625 39.890625 26.703125 39.890625 
Q 22.75 39.890625 18.8125 39.015625 
Q 14.890625 38.140625 10.796875 36.28125 
z
" id="DejaVuSans-53"/>
        <path d="M 31.78125 34.625 
Q 24.75 34.625 20.71875 30.859375 
Q 16.703125 27.09375 16.703125 20.515625 
Q 16.703125 13.921875 20.71875 10.15625 
Q 24.75 6.390625 31.78125 6.390625 
Q 38.8125 6.390625 42.859375 10.171875 
Q 46.921875 13.96875 46.921875 20.515625 
Q 46.921875 27.09375 42.890625 30.859375 
Q 38.875 34.625 31.78125 34.625 
z
M 21.921875 38.8125 
Q 15.578125 40.375 12.03125 44.71875 
Q 8.5 49.078125 8.5 55.328125 
Q 8.5 64.0625 14.71875 69.140625 
Q 20.953125 74.21875 31.78125 74.21875 
Q 42.671875 74.21875 48.875 69.140625 
Q 55.078125 64.0625 55.078125 55.328125 
Q 55.078125 49.078125 51.53125 44.71875 
Q 48 40.375 41.703125 38.8125 
Q 48.828125 37.15625 52.796875 32.3125 
Q 56.78125 27.484375 56.78125 20.515625 
Q 56.78125 9.90625 50.3125 4.234375 
Q 43.84375 -1.421875 31.78125 -1.421875 
Q 19.734375 -1.421875 13.25 4.234375 
Q 6.78125 9.90625 6.78125 20.515625 
Q 6.78125 27.484375 10.78125 32.3125 
Q 14.796875 37.15625 21.921875 38.8125 
z
M 18.3125 54.390625 
Q 18.3125 48.734375 21.84375 45.5625 
Q 25.390625 42.390625 31.78125 42.390625 
Q 38.140625 42.390625 41.71875 45.5625 
Q 45.3125 48.734375 45.3125 54.390625 
Q 45.3125 60.0625 41.71875 63.234375 
Q 38.140625 66.40625 31.78125 66.40625 
Q 25.390625 66.40625 21.84375 63.234375 
Q 18.3125 60.0625 18.3125 54.390625 
z
" id="DejaVuSans-56"/>
       </defs>
       <use xlink:href="#DejaVuSans-50"/>
       <use x="63.623047" xlink:href="#DejaVuSans-48"/>
       <use x="127.246094" xlink:href="#DejaVuSans-49"/>
       <use x="190.869141" xlink:href="#DejaVuSans-57"/>
       <use x="254.492188" xlink:href="#DejaVuSans-45"/>
       <use x="290.576172" xlink:href="#DejaVuSans-48"/>
       <use x="354.199219" xlink:href="#DejaVuSans-53"/>
       <use x="417.822266" xlink:href="#DejaVuSans-45"/>
       <use x="453.90625" xlink:href="#DejaVuSans-48"/>
       <use x="517.529297" xlink:href="#DejaVuSans-56"/>
      </g>
     </g>
    </g>
    <g id="xtick_2">
     <g id="line2d_2">
      <g>
       <use style="stroke:#000000;stroke-width:0.8;" x="109.758004" xlink:href="#mff8b6b0474" y="203.44368"/>
      </g>
     </g>
     <g id="text_2">
      <!-- 2019-05-15 -->
      <g transform="translate(58.388552 246.081932)rotate(-30)scale(0.1 -0.1)">
       <use xlink:href="#DejaVuSans-50"/>
       <use x="63.623047" xlink:href="#DejaVuSans-48"/>
       <use x="127.246094" xlink:href="#DejaVuSans-49"/>
       <use x="190.869141" xlink:href="#DejaVuSans-57"/>
       <use x="254.492188" xlink:href="#DejaVuSans-45"/>
       <use x="290.576172" xlink:href="#DejaVuSans-48"/>
       <use x="354.199219" xlink:href="#DejaVuSans-53"/>
       <use x="417.822266" xlink:href="#DejaVuSans-45"/>
       <use x="453.90625" xlink:href="#DejaVuSans-49"/>
       <use x="517.529297" xlink:href="#DejaVuSans-53"/>
      </g>
     </g>
    </g>
    <g id="xtick_3">
     <g id="line2d_3">
      <g>
       <use style="stroke:#000000;stroke-width:0.8;" x="157.147337" xlink:href="#mff8b6b0474" y="203.44368"/>
      </g>
     </g>
     <g id="text_3">
      <!-- 2019-05-22 -->
      <g transform="translate(105.777886 246.081932)rotate(-30)scale(0.1 -0.1)">
       <use xlink:href="#DejaVuSans-50"/>
       <use x="63.623047" xlink:href="#DejaVuSans-48"/>
       <use x="127.246094" xlink:href="#DejaVuSans-49"/>
       <use x="190.869141" xlink:href="#DejaVuSans-57"/>
       <use x="254.492188" xlink:href="#DejaVuSans-45"/>
       <use x="290.576172" xlink:href="#DejaVuSans-48"/>
       <use x="354.199219" xlink:href="#DejaVuSans-53"/>
       <use x="417.822266" xlink:href="#DejaVuSans-45"/>
       <use x="453.90625" xlink:href="#DejaVuSans-50"/>
       <use x="517.529297" xlink:href="#DejaVuSans-50"/>
      </g>
     </g>
    </g>
    <g id="xtick_4">
     <g id="line2d_4">
      <g>
       <use style="stroke:#000000;stroke-width:0.8;" x="224.846385" xlink:href="#mff8b6b0474" y="203.44368"/>
      </g>
     </g>
     <g id="text_4">
      <!-- 2019-06-01 -->
      <g transform="translate(173.476934 246.081932)rotate(-30)scale(0.1 -0.1)">
       <defs>
        <path d="M 33.015625 40.375 
Q 26.375 40.375 22.484375 35.828125 
Q 18.609375 31.296875 18.609375 23.390625 
Q 18.609375 15.53125 22.484375 10.953125 
Q 26.375 6.390625 33.015625 6.390625 
Q 39.65625 6.390625 43.53125 10.953125 
Q 47.40625 15.53125 47.40625 23.390625 
Q 47.40625 31.296875 43.53125 35.828125 
Q 39.65625 40.375 33.015625 40.375 
z
M 52.59375 71.296875 
L 52.59375 62.3125 
Q 48.875 64.0625 45.09375 64.984375 
Q 41.3125 65.921875 37.59375 65.921875 
Q 27.828125 65.921875 22.671875 59.328125 
Q 17.53125 52.734375 16.796875 39.40625 
Q 19.671875 43.65625 24.015625 45.921875 
Q 28.375 48.1875 33.59375 48.1875 
Q 44.578125 48.1875 50.953125 41.515625 
Q 57.328125 34.859375 57.328125 23.390625 
Q 57.328125 12.15625 50.6875 5.359375 
Q 44.046875 -1.421875 33.015625 -1.421875 
Q 20.359375 -1.421875 13.671875 8.265625 
Q 6.984375 17.96875 6.984375 36.375 
Q 6.984375 53.65625 15.1875 63.9375 
Q 23.390625 74.21875 37.203125 74.21875 
Q 40.921875 74.21875 44.703125 73.484375 
Q 48.484375 72.75 52.59375 71.296875 
z
" id="DejaVuSans-54"/>
       </defs>
       <use xlink:href="#DejaVuSans-50"/>
       <use x="63.623047" xlink:href="#DejaVuSans-48"/>
       <use x="127.246094" xlink:href="#DejaVuSans-49"/>
       <use x="190.869141" xlink:href="#DejaVuSans-57"/>
       <use x="254.492188" xlink:href="#DejaVuSans-45"/>
       <use x="290.576172" xlink:href="#DejaVuSans-48"/>
       <use x="354.199219" xlink:href="#DejaVuSans-54"/>
       <use x="417.822266" xlink:href="#DejaVuSans-45"/>
       <use x="453.90625" xlink:href="#DejaVuSans-48"/>
       <use x="517.529297" xlink:href="#DejaVuSans-49"/>
      </g>
     </g>
    </g>
    <g id="xtick_5">
     <g id="line2d_5">
      <g>
       <use style="stroke:#000000;stroke-width:0.8;" x="272.235719" xlink:href="#mff8b6b0474" y="203.44368"/>
      </g>
     </g>
     <g id="text_5">
      <!-- 2019-06-08 -->
      <g transform="translate(220.866267 246.081932)rotate(-30)scale(0.1 -0.1)">
       <use xlink:href="#DejaVuSans-50"/>
       <use x="63.623047" xlink:href="#DejaVuSans-48"/>
       <use x="127.246094" xlink:href="#DejaVuSans-49"/>
       <use x="190.869141" xlink:href="#DejaVuSans-57"/>
       <use x="254.492188" xlink:href="#DejaVuSans-45"/>
       <use x="290.576172" xlink:href="#DejaVuSans-48"/>
       <use x="354.199219" xlink:href="#DejaVuSans-54"/>
       <use x="417.822266" xlink:href="#DejaVuSans-45"/>
       <use x="453.90625" xlink:href="#DejaVuSans-48"/>
       <use x="517.529297" xlink:href="#DejaVuSans-56"/>
      </g>
     </g>
    </g>
    <g id="xtick_6">
     <g id="line2d_6">
      <g>
       <use style="stroke:#000000;stroke-width:0.8;" x="319.625052" xlink:href="#mff8b6b0474" y="203.44368"/>
      </g>
     </g>
     <g id="text_6">
      <!-- 2019-06-15 -->
      <g transform="translate(268.255601 246.081932)rotate(-30)scale(0.1 -0.1)">
       <use xlink:href="#DejaVuSans-50"/>
       <use x="63.623047" xlink:href="#DejaVuSans-48"/>
       <use x="127.246094" xlink:href="#DejaVuSans-49"/>
       <use x="190.869141" xlink:href="#DejaVuSans-57"/>
       <use x="254.492188" xlink:href="#DejaVuSans-45"/>
       <use x="290.576172" xlink:href="#DejaVuSans-48"/>
       <use x="354.199219" xlink:href="#DejaVuSans-54"/>
       <use x="417.822266" xlink:href="#DejaVuSans-45"/>
       <use x="453.90625" xlink:href="#DejaVuSans-49"/>
       <use x="517.529297" xlink:href="#DejaVuSans-53"/>
      </g>
     </g>
    </g>
    <g id="xtick_7">
     <g id="line2d_7">
      <g>
       <use style="stroke:#000000;stroke-width:0.8;" x="367.014386" xlink:href="#mff8b6b0474" y="203.44368"/>
      </g>
     </g>
     <g id="text_7">
      <!-- 2019-06-22 -->
      <g transform="translate(315.644934 246.081932)rotate(-30)scale(0.1 -0.1)">
       <use xlink:href="#DejaVuSans-50"/>
       <use x="63.623047" xlink:href="#DejaVuSans-48"/>
       <use x="127.246094" xlink:href="#DejaVuSans-49"/>
       <use x="190.869141" xlink:href="#DejaVuSans-57"/>
       <use x="254.492188" xlink:href="#DejaVuSans-45"/>
       <use x="290.576172" xlink:href="#DejaVuSans-48"/>
       <use x="354.199219" xlink:href="#DejaVuSans-54"/>
       <use x="417.822266" xlink:href="#DejaVuSans-45"/>
       <use x="453.90625" xlink:href="#DejaVuSans-50"/>
       <use x="517.529297" xlink:href="#DejaVuSans-50"/>
      </g>
     </g>
    </g>
    <g id="text_8">
     <!-- datetime -->
     <g transform="translate(186.055728 259.481432)scale(0.1 -0.1)">
      <defs>
       <path d="M 45.40625 46.390625 
L 45.40625 75.984375 
L 54.390625 75.984375 
L 54.390625 0 
L 45.40625 0 
L 45.40625 8.203125 
Q 42.578125 3.328125 38.25 0.953125 
Q 33.9375 -1.421875 27.875 -1.421875 
Q 17.96875 -1.421875 11.734375 6.484375 
Q 5.515625 14.40625 5.515625 27.296875 
Q 5.515625 40.1875 11.734375 48.09375 
Q 17.96875 56 27.875 56 
Q 33.9375 56 38.25 53.625 
Q 42.578125 51.265625 45.40625 46.390625 
z
M 14.796875 27.296875 
Q 14.796875 17.390625 18.875 11.75 
Q 22.953125 6.109375 30.078125 6.109375 
Q 37.203125 6.109375 41.296875 11.75 
Q 45.40625 17.390625 45.40625 27.296875 
Q 45.40625 37.203125 41.296875 42.84375 
Q 37.203125 48.484375 30.078125 48.484375 
Q 22.953125 48.484375 18.875 42.84375 
Q 14.796875 37.203125 14.796875 27.296875 
z
" id="DejaVuSans-100"/>
       <path d="M 34.28125 27.484375 
Q 23.390625 27.484375 19.1875 25 
Q 14.984375 22.515625 14.984375 16.5 
Q 14.984375 11.71875 18.140625 8.90625 
Q 21.296875 6.109375 26.703125 6.109375 
Q 34.1875 6.109375 38.703125 11.40625 
Q 43.21875 16.703125 43.21875 25.484375 
L 43.21875 27.484375 
z
M 52.203125 31.203125 
L 52.203125 0 
L 43.21875 0 
L 43.21875 8.296875 
Q 40.140625 3.328125 35.546875 0.953125 
Q 30.953125 -1.421875 24.3125 -1.421875 
Q 15.921875 -1.421875 10.953125 3.296875 
Q 6 8.015625 6 15.921875 
Q 6 25.140625 12.171875 29.828125 
Q 18.359375 34.515625 30.609375 34.515625 
L 43.21875 34.515625 
L 43.21875 35.40625 
Q 43.21875 41.609375 39.140625 45 
Q 35.0625 48.390625 27.6875 48.390625 
Q 23 48.390625 18.546875 47.265625 
Q 14.109375 46.140625 10.015625 43.890625 
L 10.015625 52.203125 
Q 14.9375 54.109375 19.578125 55.046875 
Q 24.21875 56 28.609375 56 
Q 40.484375 56 46.34375 49.84375 
Q 52.203125 43.703125 52.203125 31.203125 
z
" id="DejaVuSans-97"/>
       <path d="M 18.3125 70.21875 
L 18.3125 54.6875 
L 36.8125 54.6875 
L 36.8125 47.703125 
L 18.3125 47.703125 
L 18.3125 18.015625 
Q 18.3125 11.328125 20.140625 9.421875 
Q 21.96875 7.515625 27.59375 7.515625 
L 36.8125 7.515625 
L 36.8125 0 
L 27.59375 0 
Q 17.1875 0 13.234375 3.875 
Q 9.28125 7.765625 9.28125 18.015625 
L 9.28125 47.703125 
L 2.6875 47.703125 
L 2.6875 54.6875 
L 9.28125 54.6875 
L 9.28125 70.21875 
z
" id="DejaVuSans-116"/>
       <path d="M 56.203125 29.59375 
L 56.203125 25.203125 
L 14.890625 25.203125 
Q 15.484375 15.921875 20.484375 11.0625 
Q 25.484375 6.203125 34.421875 6.203125 
Q 39.59375 6.203125 44.453125 7.46875 
Q 49.3125 8.734375 54.109375 11.28125 
L 54.109375 2.78125 
Q 49.265625 0.734375 44.1875 -0.34375 
Q 39.109375 -1.421875 33.890625 -1.421875 
Q 20.796875 -1.421875 13.15625 6.1875 
Q 5.515625 13.8125 5.515625 26.8125 
Q 5.515625 40.234375 12.765625 48.109375 
Q 20.015625 56 32.328125 56 
Q 43.359375 56 49.78125 48.890625 
Q 56.203125 41.796875 56.203125 29.59375 
z
M 47.21875 32.234375 
Q 47.125 39.59375 43.09375 43.984375 
Q 39.0625 48.390625 32.421875 48.390625 
Q 24.90625 48.390625 20.390625 44.140625 
Q 15.875 39.890625 15.1875 32.171875 
z
" id="DejaVuSans-101"/>
       <path d="M 9.421875 54.6875 
L 18.40625 54.6875 
L 18.40625 0 
L 9.421875 0 
z
M 9.421875 75.984375 
L 18.40625 75.984375 
L 18.40625 64.59375 
L 9.421875 64.59375 
z
" id="DejaVuSans-105"/>
       <path d="M 52 44.1875 
Q 55.375 50.25 60.0625 53.125 
Q 64.75 56 71.09375 56 
Q 79.640625 56 84.28125 50.015625 
Q 88.921875 44.046875 88.921875 33.015625 
L 88.921875 0 
L 79.890625 0 
L 79.890625 32.71875 
Q 79.890625 40.578125 77.09375 44.375 
Q 74.3125 48.1875 68.609375 48.1875 
Q 61.625 48.1875 57.5625 43.546875 
Q 53.515625 38.921875 53.515625 30.90625 
L 53.515625 0 
L 44.484375 0 
L 44.484375 32.71875 
Q 44.484375 40.625 41.703125 44.40625 
Q 38.921875 48.1875 33.109375 48.1875 
Q 26.21875 48.1875 22.15625 43.53125 
Q 18.109375 38.875 18.109375 30.90625 
L 18.109375 0 
L 9.078125 0 
L 9.078125 54.6875 
L 18.109375 54.6875 
L 18.109375 46.1875 
Q 21.1875 51.21875 25.484375 53.609375 
Q 29.78125 56 35.6875 56 
Q 41.65625 56 45.828125 52.96875 
Q 50 49.953125 52 44.1875 
z
" id="DejaVuSans-109"/>
      </defs>
      <use xlink:href="#DejaVuSans-100"/>
      <use x="63.476562" xlink:href="#DejaVuSans-97"/>
      <use x="124.755859" xlink:href="#DejaVuSans-116"/>
      <use x="163.964844" xlink:href="#DejaVuSans-101"/>
      <use x="225.488281" xlink:href="#DejaVuSans-116"/>
      <use x="264.697266" xlink:href="#DejaVuSans-105"/>
      <use x="292.480469" xlink:href="#DejaVuSans-109"/>
      <use x="389.892578" xlink:href="#DejaVuSans-101"/>
     </g>
    </g>
   </g>
   <g id="matplotlib.axis_2">
    <g id="ytick_1">
     <g id="line2d_8">
      <defs>
       <path d="M 0 0 
L -3.5 0 
" id="mf71b875a01" style="stroke:#000000;stroke-width:0.8;"/>
      </defs>
      <g>
       <use style="stroke:#000000;stroke-width:0.8;" x="41.226822" xlink:href="#mf71b875a01" y="194.541862"/>
      </g>
     </g>
     <g id="text_9">
      <!-- 0 -->
      <g transform="translate(27.864322 198.34108)scale(0.1 -0.1)">
       <use xlink:href="#DejaVuSans-48"/>
      </g>
     </g>
    </g>
    <g id="ytick_2">
     <g id="line2d_9">
      <g>
       <use style="stroke:#000000;stroke-width:0.8;" x="41.226822" xlink:href="#mf71b875a01" y="157.833333"/>
      </g>
     </g>
     <g id="text_10">
      <!-- 20 -->
      <g transform="translate(21.501822 161.632552)scale(0.1 -0.1)">
       <use xlink:href="#DejaVuSans-50"/>
       <use x="63.623047" xlink:href="#DejaVuSans-48"/>
      </g>
     </g>
    </g>
    <g id="ytick_3">
     <g id="line2d_10">
      <g>
       <use style="stroke:#000000;stroke-width:0.8;" x="41.226822" xlink:href="#mf71b875a01" y="121.124805"/>
      </g>
     </g>
     <g id="text_11">
      <!-- 40 -->
      <g transform="translate(21.501822 124.924023)scale(0.1 -0.1)">
       <defs>
        <path d="M 37.796875 64.3125 
L 12.890625 25.390625 
L 37.796875 25.390625 
z
M 35.203125 72.90625 
L 47.609375 72.90625 
L 47.609375 25.390625 
L 58.015625 25.390625 
L 58.015625 17.1875 
L 47.609375 17.1875 
L 47.609375 0 
L 37.796875 0 
L 37.796875 17.1875 
L 4.890625 17.1875 
L 4.890625 26.703125 
z
" id="DejaVuSans-52"/>
       </defs>
       <use xlink:href="#DejaVuSans-52"/>
       <use x="63.623047" xlink:href="#DejaVuSans-48"/>
      </g>
     </g>
    </g>
    <g id="ytick_4">
     <g id="line2d_11">
      <g>
       <use style="stroke:#000000;stroke-width:0.8;" x="41.226822" xlink:href="#mf71b875a01" y="84.416276"/>
      </g>
     </g>
     <g id="text_12">
      <!-- 60 -->
      <g transform="translate(21.501822 88.215495)scale(0.1 -0.1)">
       <use xlink:href="#DejaVuSans-54"/>
       <use x="63.623047" xlink:href="#DejaVuSans-48"/>
      </g>
     </g>
    </g>
    <g id="ytick_5">
     <g id="line2d_12">
      <g>
       <use style="stroke:#000000;stroke-width:0.8;" x="41.226822" xlink:href="#mf71b875a01" y="47.707747"/>
      </g>
     </g>
     <g id="text_13">
      <!-- 80 -->
      <g transform="translate(21.501822 51.506966)scale(0.1 -0.1)">
       <use xlink:href="#DejaVuSans-56"/>
       <use x="63.623047" xlink:href="#DejaVuSans-48"/>
      </g>
     </g>
    </g>
    <g id="ytick_6">
     <g id="line2d_13">
      <g>
       <use style="stroke:#000000;stroke-width:0.8;" x="41.226822" xlink:href="#mf71b875a01" y="10.999219"/>
      </g>
     </g>
     <g id="text_14">
      <!-- 100 -->
      <g transform="translate(15.139322 14.798438)scale(0.1 -0.1)">
       <use xlink:href="#DejaVuSans-49"/>
       <use x="63.623047" xlink:href="#DejaVuSans-48"/>
       <use x="127.246094" xlink:href="#DejaVuSans-48"/>
      </g>
     </g>
    </g>
   </g>
   <g id="line2d_14">
    <path clip-path="url(#p7523970844)" d="M 56.445003 148.656201 
L 56.727083 143.70055 
L 57.009162 102.03637 
L 57.573321 61.656988 
L 57.8554 51.929228 
L 58.419559 91.757982 
L 58.983718 157.64979 
L 59.265797 170.681318 
L 59.547876 175.086342 
L 59.829956 170.314233 
L 60.112035 174.352171 
L 60.394115 173.067372 
L 60.958273 153.611852 
L 61.240353 155.263736 
L 61.522432 145.352433 
L 61.804511 128.099425 
L 62.086591 132.320906 
L 62.36867 128.833596 
L 62.650749 132.137363 
L 62.932829 153.978938 
L 63.214908 158.567504 
L 63.496988 166.459837 
L 63.779067 169.763605 
L 64.061146 166.092752 
L 64.625305 154.713108 
L 65.189464 163.339612 
L 65.471543 158.383961 
L 65.753623 133.238619 
L 66.035702 155.263736 
L 66.317781 166.826923 
L 66.599861 168.295264 
L 66.88194 148.105573 
L 67.164019 146.820775 
L 67.446099 123.694402 
L 67.728178 140.763867 
L 68.010257 143.517007 
L 68.292337 118.73875 
L 68.574416 124.245029 
L 68.856496 104.789509 
L 69.138575 135.441131 
L 69.420654 148.289116 
L 69.702734 167.561093 
L 69.984813 175.086342 
L 70.266892 176.187597 
L 70.548972 175.453427 
L 70.831051 166.459837 
L 71.39521 101.485742 
L 71.677289 104.605967 
L 71.959369 135.441131 
L 72.241448 135.257588 
L 72.523527 115.434983 
L 72.805607 131.770278 
L 73.087686 130.118394 
L 73.369765 155.447279 
L 73.651845 149.390372 
L 73.933924 150.67517 
L 74.498083 139.662611 
L 74.780162 149.757457 
L 75.062242 150.858713 
L 75.6264 131.21965 
L 76.190559 145.535976 
L 77.036797 168.662349 
L 77.318877 167.010465 
L 77.600956 156.91562 
L 77.883035 125.162743 
L 78.447194 89.371927 
L 78.729273 83.131477 
L 79.011353 96.53009 
L 79.575511 151.959969 
L 79.857591 148.105573 
L 80.13967 154.16248 
L 80.42175 140.763867 
L 80.703829 140.213239 
L 80.985908 138.010728 
L 81.267988 125.162743 
L 81.550067 133.238619 
L 82.114226 114.517269 
L 82.960464 146.820775 
L 83.242543 149.023286 
L 83.524623 166.092752 
L 83.806702 167.194008 
M 84.935019 141.498038 
L 85.217099 141.314495 
L 85.781258 129.017138 
L 86.063337 126.998169 
L 86.627496 139.111984 
L 86.909575 138.010728 
L 87.191654 161.871271 
L 87.473734 161.504186 
L 87.755813 158.751046 
L 88.037892 135.808216 
L 88.319972 133.789247 
L 88.602051 137.276557 
L 88.884131 150.124542 
L 89.16621 155.814364 
L 89.448289 143.70055 
L 89.730369 146.086604 
L 90.294527 159.301674 
L 90.576607 162.972527 
L 90.858686 165.175039 
L 91.140765 164.807954 
L 91.422845 159.301674 
L 91.704924 157.64979 
L 91.987004 165.358581 
L 92.269083 167.744636 
L 92.551162 173.067372 
L 92.833242 173.618 
L 93.115321 173.618 
L 93.3974 174.535714 
L 93.67948 178.573652 
L 94.243639 176.921768 
L 94.807797 169.029434 
L 95.089877 161.137101 
L 95.371956 158.751046 
L 95.654035 150.308085 
L 96.218194 109.194533 
L 96.500273 134.890503 
L 97.064432 159.852302 
L 97.346512 160.586473 
L 97.628591 159.852302 
L 97.91067 148.472658 
L 98.19275 124.245029 
L 98.474829 111.580587 
L 98.756908 119.289378 
L 99.603146 171.048403 
L 99.885226 176.921768 
L 100.167305 177.655939 
L 100.731464 174.902799 
L 101.013543 175.086342 
L 101.295623 172.333202 
L 101.577702 170.681318 
L 101.859781 166.092752 
L 102.141861 150.67517 
L 102.42394 142.599294 
L 102.70602 138.744898 
L 102.988099 144.43472 
L 103.270178 152.694139 
L 103.834337 159.485217 
L 104.116416 159.66876 
L 104.398496 153.978938 
L 104.962654 123.694402 
L 105.244734 109.928703 
L 105.526813 118.73875 
L 106.090972 159.66876 
L 106.373051 170.864861 
L 106.93721 175.820512 
L 107.219289 174.352171 
L 107.501369 166.64338 
L 107.783448 169.947148 
L 108.347607 162.054814 
L 108.629686 161.687729 
L 109.193845 142.415751 
L 109.475924 141.314495 
L 109.758004 137.827185 
L 110.322162 160.035845 
L 110.604242 162.972527 
L 110.886321 163.706698 
L 111.1684 161.687729 
L 111.45048 141.498038 
L 111.732559 109.194533 
L 112.014639 106.25785 
L 112.296718 135.624673 
L 112.578797 147.371402 
L 112.860877 194.541862 
L 113.425035 194.541862 
L 113.707115 177.288853 
L 113.989194 176.187597 
L 114.271274 172.700287 
L 114.553353 170.864861 
L 114.835432 172.149659 
L 115.117512 170.864861 
L 115.68167 157.282705 
L 115.96375 139.295526 
L 116.527908 113.599556 
L 116.809988 137.827185 
L 117.092067 144.251178 
L 117.374147 146.820775 
L 117.656226 145.535976 
L 117.938305 143.333464 
L 118.220385 126.631084 
L 118.502464 97.998431 
M 119.066623 121.124805 
L 119.348702 122.22606 
L 119.630781 140.396782 
L 119.912861 169.763605 
L 120.19494 175.269884 
L 120.47702 177.655939 
L 120.759099 178.940737 
L 121.041178 179.674908 
L 121.323258 176.004055 
L 121.605337 175.636969 
L 122.169496 165.358581 
L 122.451575 168.111721 
L 122.733655 149.023286 
L 123.015734 149.940999 
L 123.297813 126.447541 
L 123.579893 114.333727 
L 123.861972 109.561618 
L 124.144051 146.637232 
L 124.426131 149.390372 
L 124.990289 142.415751 
L 125.272369 132.137363 
L 125.836528 93.593408 
L 126.400686 83.498563 
L 126.964845 115.434983 
L 127.246924 109.194533 
L 128.093162 153.795395 
L 128.375242 156.548535 
L 128.939401 132.871534 
L 129.22148 149.206829 
L 129.503559 151.409341 
L 129.785639 149.940999 
L 130.067718 142.782836 
L 130.349797 131.95382 
L 130.631877 136.725929 
L 130.913956 125.896913 
L 131.196036 141.314495 
L 131.478115 164.991496 
L 131.760194 164.073783 
L 132.042274 157.64979 
L 132.324353 153.978938 
L 132.606432 144.251178 
L 132.888512 157.099163 
L 133.170591 155.814364 
L 133.45267 150.308085 
L 134.016829 170.864861 
L 134.298909 175.269884 
L 135.145147 167.744636 
L 135.427226 171.048403 
L 135.709305 167.928178 
L 135.991385 70.650578 
L 136.273464 128.099425 
L 136.555543 85.701074 
L 136.837623 79.82771 
L 137.119702 102.403455 
L 137.401782 103.504711 
L 137.683861 130.485479 
L 137.96594 124.612115 
L 138.24802 127.73234 
L 138.530099 122.22606 
L 138.812178 119.472921 
L 139.094258 137.4601 
L 139.376337 135.074045 
L 139.658417 136.358844 
L 139.940496 133.97279 
L 140.222575 137.643642 
L 140.504655 134.70696 
L 140.786734 143.333464 
L 141.068813 155.997907 
L 141.350893 150.858713 
L 141.632972 136.358844 
L 141.915051 134.890503 
L 142.197131 132.320906 
L 142.47921 134.523417 
L 142.76129 100.568028 
L 143.325448 151.959969 
L 143.607528 153.795395 
L 144.453766 171.048403 
L 144.735845 172.333202 
L 145.017924 171.415489 
L 145.300004 167.194008 
L 145.582083 148.289116 
L 145.864163 120.941262 
L 146.146242 108.460362 
L 146.710401 111.029959 
L 146.99248 113.966641 
L 147.556639 150.858713 
L 147.838718 151.042255 
L 148.120797 144.067635 
L 148.402877 145.903061 
L 148.684956 135.074045 
L 148.967036 149.390372 
L 149.249115 135.441131 
L 149.531194 155.447279 
L 149.813274 154.896651 
L 150.095353 157.282705 
L 150.377432 156.548535 
L 150.659512 158.567504 
L 150.941591 163.523155 
L 151.223671 164.624411 
L 151.50575 162.054814 
L 151.787829 161.687729 
L 152.069909 160.586473 
L 152.634067 79.644167 
L 152.916147 91.757982 
L 153.198226 95.061749 
L 153.480305 106.25785 
L 153.762385 138.744898 
L 154.044464 147.738488 
L 154.326544 138.561356 
L 154.608623 103.321168 
L 154.890702 106.808478 
L 155.172782 127.365254 
L 155.454861 116.903324 
L 155.73694 56.884879 
L 156.01902 94.878207 
L 156.301099 102.77054 
L 156.583178 119.656463 
L 156.865258 115.618525 
L 157.147337 133.605704 
L 157.711496 144.801805 
L 157.993575 143.333464 
L 158.275655 159.301674 
L 158.557734 148.289116 
L 159.121893 111.76413 
L 159.403972 55.600081 
L 159.686052 56.150709 
L 159.968131 64.59367 
L 160.53229 88.454214 
L 160.814369 116.352696 
L 161.096448 117.086866 
L 161.378528 123.877944 
L 161.660607 121.124805 
L 161.942686 133.605704 
L 162.506845 128.282968 
L 162.788925 131.95382 
L 163.071004 128.099425 
L 163.353083 112.131215 
L 163.917242 139.846154 
L 164.199321 80.56188 
L 164.481401 96.713633 
L 164.76348 97.080718 
L 165.327639 53.581112 
L 165.891798 68.448066 
L 166.455956 26.049715 
L 166.738036 16.505498 
L 167.020115 48.809003 
L 167.302194 142.599294 
L 167.584274 163.339612 
L 167.866353 164.440868 
L 168.148433 155.630821 
L 168.430512 162.972527 
L 168.994671 161.871271 
L 169.27675 152.877682 
L 169.558829 151.409341 
L 170.122988 132.504448 
L 170.687147 80.928966 
L 170.969226 151.959969 
L 171.251306 134.339875 
L 171.533385 141.681581 
L 171.815464 142.415751 
L 172.097544 158.934589 
L 172.661702 128.650053 
L 172.943782 119.840006 
L 173.225861 93.960493 
L 174.072099 142.048666 
L 174.354179 120.023549 
L 174.636258 140.763867 
L 175.200417 156.91562 
L 175.482496 152.877682 
L 175.764575 144.43472 
L 176.328734 151.776426 
L 176.610814 154.346023 
L 176.892893 136.358844 
L 177.174972 161.320643 
L 177.457052 161.504186 
L 177.739131 164.257326 
L 178.02121 162.605442 
L 178.30329 171.048403 
L 178.585369 157.282705 
M 179.713687 126.814626 
L 179.995766 117.270409 
L 180.277845 112.865386 
L 180.842004 146.270147 
L 181.124083 158.751046 
L 181.406163 160.40293 
L 181.688242 146.637232 
L 181.970321 151.225798 
L 182.252401 139.479069 
L 182.53448 135.991759 
L 182.81656 156.732077 
L 183.098639 138.744898 
L 183.380718 153.978938 
L 183.662798 114.517269 
L 183.944877 122.042518 
L 184.226956 77.258113 
L 184.509036 65.694926 
L 184.791115 71.568291 
L 185.073194 103.137625 
L 185.355274 151.592883 
L 185.919433 153.611852 
L 186.201512 163.706698 
L 186.765671 169.947148 
L 187.04775 174.352171 
L 187.329829 175.636969 
L 187.611909 173.801543 
L 187.893988 170.13069 
L 188.176068 173.434458 
L 188.458147 171.599031 
L 188.740226 166.459837 
L 189.022306 173.067372 
L 189.304385 163.15607 
L 189.586464 162.788984 
L 189.868544 152.694139 
L 190.150623 161.871271 
L 190.432702 164.073783 
L 190.714782 164.991496 
L 190.996861 166.64338 
L 191.278941 175.636969 
L 191.56102 177.105311 
L 191.843099 181.510334 
L 192.407258 185.731815 
L 192.689337 182.61159 
L 193.253496 141.130953 
L 193.535575 140.396782 
L 193.817655 131.770278 
L 194.099734 136.909472 
L 194.381814 151.776426 
L 194.663893 159.118132 
L 194.945972 162.788984 
L 195.228052 162.421899 
L 195.510131 162.788984 
L 195.79221 147.554945 
L 196.07429 151.225798 
L 196.356369 152.510596 
L 196.638449 147.554945 
L 196.920528 153.978938 
L 197.202607 153.611852 
L 197.484687 160.035845 
L 197.766766 158.016876 
L 198.048845 153.061224 
L 198.613004 179.491365 
L 198.895083 182.795133 
L 199.177163 183.34576 
L 199.459242 178.206566 
L 200.023401 141.681581 
L 200.30548 132.504448 
L 200.58756 137.276557 
L 200.869639 149.940999 
L 201.151718 154.896651 
L 201.433798 156.91562 
L 201.715877 149.023286 
L 201.997956 160.586473 
L 202.280036 160.035845 
L 202.562115 148.656201 
L 202.844195 145.903061 
L 203.408353 164.807954 
L 203.972512 157.099163 
L 204.254591 157.099163 
L 204.536671 157.466248 
L 204.81875 148.105573 
L 205.664988 159.66876 
L 205.947068 157.282705 
L 206.229147 150.308085 
L 206.793306 109.194533 
L 207.075385 101.852827 
L 207.357464 110.662874 
L 207.639544 131.21965 
L 207.921623 138.19427 
L 208.485782 170.314233 
L 208.767861 161.871271 
L 209.049941 194.541862 
L 209.33202 194.541862 
L 209.614099 157.64979 
L 210.178258 148.105573 
L 210.460337 150.308085 
L 211.024496 163.523155 
L 211.306576 159.66876 
L 211.588655 158.016876 
L 211.870734 158.934589 
L 212.152814 171.782574 
L 212.434893 177.288853 
L 212.716972 175.086342 
L 212.999052 175.453427 
L 213.563211 170.13069 
L 213.84529 160.953558 
L 214.691528 169.212977 
L 214.973607 167.194008 
L 215.255687 168.478806 
L 215.537766 164.991496 
L 215.819845 167.194008 
L 216.101925 170.681318 
L 216.384004 171.048403 
L 216.666084 157.099163 
L 216.948163 153.978938 
L 217.230242 152.510596 
L 217.512322 154.346023 
L 217.794401 145.168891 
L 218.07648 144.985348 
L 218.35856 140.213239 
L 218.640639 144.618263 
L 219.204798 113.599556 
L 219.486877 120.941262 
L 219.768957 137.4601 
L 220.051036 126.263999 
L 220.333115 123.694402 
L 220.615195 107.542649 
L 220.897274 127.365254 
L 221.179353 158.567504 
L 222.025591 170.13069 
L 222.307671 169.212977 
L 222.58975 166.276295 
L 222.87183 166.276295 
L 223.153909 164.624411 
L 223.718068 148.289116 
L 224.000147 151.776426 
L 224.282226 126.631084 
L 224.564306 84.049191 
L 224.846385 69.732864 
L 225.128465 44.587522 
L 225.410544 39.081243 
L 225.974703 69.549322 
M 227.10302 112.681843 
L 227.385099 109.378075 
L 227.949258 150.67517 
L 228.231338 169.212977 
L 228.795496 175.453427 
L 229.359655 176.187597 
L 229.641734 175.820512 
L 229.923814 172.88383 
L 230.205893 172.88383 
L 230.487972 167.928178 
L 230.770052 149.390372 
L 231.052131 114.517269 
L 231.334211 103.871796 
L 231.61629 106.25785 
L 231.898369 134.523417 
L 232.180449 124.612115 
L 232.462528 124.428572 
L 232.744607 122.593146 
L 233.026687 151.959969 
L 233.308766 149.573914 
L 233.590846 126.263999 
L 233.872925 150.308085 
L 234.155004 161.320643 
L 234.719163 155.997907 
L 235.001242 161.320643 
L 235.283322 170.497775 
L 235.565401 173.434458 
L 236.12956 167.010465 
L 236.411639 169.029434 
L 236.693719 168.111721 
L 236.975798 168.111721 
L 237.257877 165.909209 
L 237.539957 147.18786 
L 237.822036 119.472921 
L 238.104115 126.814626 
L 238.668274 161.687729 
L 238.950353 165.725667 
L 239.232433 172.88383 
L 239.514512 173.067372 
L 239.796592 176.554683 
L 240.078671 173.618 
L 240.64283 113.599556 
L 240.924909 102.77054 
L 241.206988 113.966641 
L 241.489068 110.112246 
L 241.771147 136.358844 
L 242.335306 153.978938 
L 242.617385 147.18786 
L 242.899465 151.959969 
L 243.181544 149.023286 
L 243.463623 148.105573 
L 243.745703 149.757457 
L 244.027782 152.143511 
L 244.591941 133.97279 
L 244.87402 137.4601 
L 245.1561 138.561356 
L 245.438179 112.681843 
L 245.720258 98.365517 
L 246.284417 130.301937 
L 246.566496 118.188122 
L 246.848576 141.681581 
L 247.130655 127.548797 
L 247.412734 106.992021 
L 247.694814 96.346548 
L 247.976893 101.302199 
L 248.541052 151.776426 
L 248.823131 158.567504 
L 249.105211 162.054814 
L 249.38729 162.605442 
L 249.669369 161.320643 
L 249.951449 155.080193 
L 250.233528 146.270147 
L 250.515608 151.592883 
L 250.797687 148.289116 
L 251.079766 163.339612 
L 251.361846 163.523155 
L 251.926004 133.055076 
L 252.208084 161.871271 
L 252.490163 165.725667 
L 252.772242 174.719256 
L 253.054322 171.782574 
L 253.336401 164.807954 
L 253.618481 149.573914 
L 253.90056 122.593146 
L 254.182639 128.833596 
L 254.464719 126.814626 
L 254.746798 129.751309 
L 255.028877 126.998169 
L 255.310957 117.270409 
L 255.593036 86.251702 
L 256.157195 132.871534 
L 256.439274 124.245029 
L 256.721354 96.346548 
L 257.003433 124.9792 
L 257.285512 104.973052 
L 257.567592 119.656463 
L 257.849671 125.162743 
L 258.13175 125.713371 
L 258.695909 138.928441 
L 258.977988 136.175301 
L 259.542147 161.504186 
L 259.824227 166.64338 
L 260.106306 159.301674 
L 260.670465 120.574177 
L 260.952544 120.207091 
L 261.234623 115.434983 
L 261.516703 128.46651 
L 261.798782 146.820775 
L 262.362941 164.440868 
L 262.64502 164.257326 
L 262.9271 165.175039 
L 263.209179 166.826923 
M 267.722449 141.498038 
L 268.004528 152.327054 
L 268.568687 131.21965 
L 268.850766 135.624673 
L 269.132846 145.535976 
L 269.414925 161.871271 
L 269.979084 170.497775 
L 270.261163 165.909209 
L 270.543243 158.751046 
L 270.825322 158.751046 
L 271.107401 159.485217 
L 271.389481 158.016876 
L 271.67156 158.934589 
L 271.953639 164.624411 
L 272.235719 167.561093 
L 272.517798 168.111721 
L 272.799877 173.801543 
L 273.364036 179.12428 
L 273.928195 174.902799 
L 274.210274 168.662349 
L 274.492354 169.212977 
L 274.774433 168.845892 
L 275.338592 173.067372 
L 275.620671 175.636969 
L 275.90275 175.453427 
L 276.18483 177.655939 
L 276.466909 174.168628 
L 276.748989 175.636969 
L 277.031068 173.067372 
L 277.313147 168.662349 
L 277.595227 167.377551 
L 277.877306 154.16248 
M 278.723544 127.181712 
L 279.005624 130.669022 
L 279.569782 91.941524 
L 279.851862 119.289378 
L 280.133941 100.568028 
L 280.41602 100.017401 
L 280.6981 115.618525 
L 280.980179 117.086866 
L 281.544338 134.523417 
L 281.826417 139.111984 
L 282.108497 148.656201 
L 282.390576 164.073783 
L 282.672655 167.744636 
L 282.954735 167.744636 
L 283.236814 175.820512 
L 283.518893 180.041993 
L 283.800973 181.326791 
L 284.365131 170.681318 
L 284.647211 158.751046 
L 284.92929 138.377813 
L 285.21137 133.605704 
L 285.493449 137.827185 
L 285.775528 126.447541 
L 286.057608 121.308347 
L 286.621766 159.118132 
L 286.903846 161.871271 
L 287.185925 161.504186 
L 287.468005 169.39652 
L 288.032163 145.535976 
L 288.314243 152.327054 
L 288.596322 163.523155 
L 288.878401 160.586473 
L 289.160481 168.662349 
L 289.44256 172.149659 
L 289.724639 173.067372 
L 290.006719 176.921768 
L 290.288798 177.105311 
L 290.570878 173.067372 
L 291.135036 159.485217 
L 291.417116 160.770015 
L 291.699195 153.611852 
L 291.981274 153.061224 
L 292.263354 151.409341 
L 292.545433 149.023286 
L 292.827512 150.308085 
L 293.109592 158.567504 
L 293.391671 159.485217 
L 293.673751 140.213239 
L 293.95583 135.257588 
L 294.237909 97.814889 
L 294.519989 86.80233 
L 294.802068 92.859237 
L 295.084147 88.087129 
L 295.648306 136.358844 
L 295.930385 153.978938 
L 296.494544 171.415489 
L 296.776624 170.497775 
L 297.622862 153.061224 
L 298.18702 112.681843 
L 298.4691 128.282968 
L 298.751179 116.169153 
L 299.033259 95.245292 
L 299.315338 85.517532 
L 299.597417 118.371665 
L 299.879497 126.263999 
L 300.161576 117.637494 
L 300.443655 130.852565 
L 300.725735 127.915882 
L 301.007814 112.131215 
L 301.289893 116.169153 
L 301.571973 124.061487 
L 301.854052 113.048928 
L 302.418211 145.535976 
L 302.70029 194.541862 
L 302.98237 194.541862 
L 303.264449 166.276295 
L 303.828608 157.282705 
L 304.110687 163.706698 
L 304.392766 151.225798 
L 304.674846 150.124542 
L 304.956925 148.105573 
L 305.239005 151.592883 
L 305.521084 140.94741 
L 305.803163 140.763867 
L 306.085243 147.554945 
L 306.367322 145.168891 
L 306.649401 157.833333 
L 306.931481 160.219387 
L 307.21356 161.504186 
L 307.49564 160.035845 
L 307.777719 149.390372 
L 308.059798 126.631084 
L 308.341878 121.49189 
L 308.623957 119.472921 
L 309.470195 149.573914 
L 309.752274 152.877682 
L 310.034354 161.687729 
L 310.316433 161.137101 
L 310.598513 158.934589 
L 311.162671 128.282968 
L 311.444751 124.428572 
L 311.72683 150.491627 
L 312.290989 136.725929 
L 312.855147 51.562143 
L 313.137227 50.827972 
L 313.419306 58.353221 
L 313.701386 69.549322 
L 313.983465 72.302461 
L 314.265544 105.52368 
L 314.547624 124.9792 
L 315.111782 76.523942 
L 315.958021 143.333464 
L 316.522179 154.529566 
L 316.804259 163.15607 
L 317.368417 168.478806 
L 317.650497 166.64338 
L 317.932576 159.852302 
L 318.214655 164.073783 
L 318.496735 159.66876 
L 318.778814 148.656201 
L 319.342973 93.593408 
L 319.625052 129.751309 
L 320.189211 140.213239 
L 320.47129 141.314495 
L 320.75337 132.320906 
M 321.881687 128.833596 
L 322.163767 150.308085 
L 322.445846 162.238357 
L 322.727925 168.845892 
L 323.010005 172.333202 
L 323.292084 174.168628 
L 323.574163 177.288853 
L 323.856243 178.023024 
L 324.138322 176.921768 
L 324.420402 175.269884 
L 324.702481 174.902799 
L 324.98456 174.168628 
L 325.26664 168.845892 
L 325.548719 168.478806 
L 325.830798 166.64338 
L 326.112878 162.972527 
L 326.677036 153.061224 
L 327.241195 171.048403 
L 327.523275 173.618 
L 327.805354 173.985086 
L 328.087433 173.067372 
L 328.369513 168.845892 
L 328.651592 173.250915 
L 328.933671 175.820512 
L 329.215751 176.37114 
L 329.779909 178.573652 
L 330.061989 170.864861 
L 330.344068 173.985086 
L 330.626148 178.573652 
L 330.908227 179.674908 
L 331.190306 179.12428 
L 331.472386 177.655939 
L 331.754465 172.88383 
L 332.036544 171.966117 
L 332.318624 168.111721 
L 332.600703 151.776426 
L 333.164862 90.656726 
L 333.446941 71.017663 
L 333.729021 67.34681 
L 334.0111 86.618788 
L 334.575259 104.422424 
L 334.857338 110.662874 
L 335.139417 112.314758 
L 335.421497 98.549059 
L 335.703576 94.694664 
L 335.985656 99.833858 
L 336.549814 165.175039 
L 336.831894 166.64338 
L 337.113973 176.004055 
L 337.396052 176.921768 
L 337.960211 170.497775 
L 338.24229 172.700287 
L 338.52437 167.194008 
L 338.806449 166.276295 
L 339.088529 166.64338 
L 339.370608 156.91562 
L 340.216846 60.005104 
L 340.781005 84.232733 
L 341.063084 121.49189 
L 341.345163 111.029959 
L 341.627243 145.903061 
L 341.909322 132.504448 
L 342.191402 100.200943 
L 342.473481 97.998431 
L 342.75556 103.504711 
L 345.858433 166.459837 
L 346.140513 163.339612 
L 346.422592 152.143511 
L 346.704671 122.409603 
L 350.089624 145.719519 
L 357.705767 158.934589 
L 357.987846 157.64979 
L 358.269925 159.118132 
L 358.552005 159.66876 
L 358.834084 151.959969 
L 359.116164 150.67517 
L 359.398243 148.105573 
L 359.680322 155.263736 
L 359.962402 148.839744 
L 360.244481 145.903061 
L 360.52656 154.529566 
L 360.80864 157.833333 
L 360.80864 157.833333 
" style="fill:none;stroke:#1f77b4;stroke-linecap:square;stroke-width:1.5;"/>
   </g>
   <g id="patch_3">
    <path d="M 41.226822 203.44368 
L 41.226822 7.60368 
" style="fill:none;stroke:#000000;stroke-linecap:square;stroke-linejoin:miter;stroke-width:0.8;"/>
   </g>
   <g id="patch_4">
    <path d="M 376.026822 203.44368 
L 376.026822 7.60368 
" style="fill:none;stroke:#000000;stroke-linecap:square;stroke-linejoin:miter;stroke-width:0.8;"/>
   </g>
   <g id="patch_5">
    <path d="M 41.226822 203.44368 
L 376.026822 203.44368 
" style="fill:none;stroke:#000000;stroke-linecap:square;stroke-linejoin:miter;stroke-width:0.8;"/>
   </g>
   <g id="patch_6">
    <path d="M 41.226822 7.60368 
L 376.026822 7.60368 
" style="fill:none;stroke:#000000;stroke-linecap:square;stroke-linejoin:miter;stroke-width:0.8;"/>
   </g>
  </g>
 </g>
 <defs>
  <clipPath id="p7523970844">
   <rect height="195.84" width="334.8" x="41.226822" y="7.60368"/>
  </clipPath>
 </defs>
</svg>
