<?xml version="1.0" encoding="utf-8" standalone="no"?>
<!DOCTYPE svg PUBLIC "-//W3C//DTD SVG 1.1//EN"
  "http://www.w3.org/Graphics/SVG/1.1/DTD/svg11.dtd">
<!-- Created with matplotlib (https://matplotlib.org/) -->
<svg height="268.761119pt" version="1.1" viewBox="0 0 382.950488 268.761119" width="382.950488pt" xmlns="http://www.w3.org/2000/svg" xmlns:xlink="http://www.w3.org/1999/xlink">
 <metadata>
  <rdf:RDF xmlns:cc="http://creativecommons.org/ns#" xmlns:dc="http://purl.org/dc/elements/1.1/" xmlns:rdf="http://www.w3.org/1999/02/22-rdf-syntax-ns#">
   <cc:Work>
    <dc:type rdf:resource="http://purl.org/dc/dcmitype/StillImage"/>
    <dc:date>2021-09-01T20:32:59.090705</dc:date>
    <dc:format>image/svg+xml</dc:format>
    <dc:creator>
     <cc:Agent>
      <dc:title>Matplotlib v3.3.4, https://matplotlib.org/</dc:title>
     </cc:Agent>
    </dc:creator>
   </cc:Work>
  </rdf:RDF>
 </metadata>
 <defs>
  <style type="text/css">*{stroke-linecap:butt;stroke-linejoin:round;}</style>
 </defs>
 <g id="figure_1">
  <g id="patch_1">
   <path d="M 0 268.761119 
L 382.950488 268.761119 
L 382.950488 0 
L 0 0 
z
" style="fill:none;"/>
  </g>
  <g id="axes_1">
   <g id="patch_2">
    <path d="M 40.950488 203.44368 
L 375.750488 203.44368 
L 375.750488 7.60368 
L 40.950488 7.60368 
z
" style="fill:#ffffff;"/>
   </g>
   <g id="matplotlib.axis_1">
    <g id="xtick_1">
     <g id="line2d_1">
      <defs>
       <path d="M 0 0 
L 0 3.5 
" id="m99cf255007" style="stroke:#000000;stroke-width:0.8;"/>
      </defs>
      <g>
       <use style="stroke:#000000;stroke-width:0.8;" x="62.36867" xlink:href="#m99cf255007" y="203.44368"/>
      </g>
     </g>
     <g id="text_1">
      <!-- 2019-05-08 -->
      <g transform="translate(10.999219 246.081932)rotate(-30)scale(0.1 -0.1)">
       <defs>
        <path d="M 19.1875 8.296875 
L 53.609375 8.296875 
L 53.609375 0 
L 7.328125 0 
L 7.328125 8.296875 
Q 12.9375 14.109375 22.625 23.890625 
Q 32.328125 33.6875 34.8125 36.53125 
Q 39.546875 41.84375 41.421875 45.53125 
Q 43.3125 49.21875 43.3125 52.78125 
Q 43.3125 58.59375 39.234375 62.25 
Q 35.15625 65.921875 28.609375 65.921875 
Q 23.96875 65.921875 18.8125 64.3125 
Q 13.671875 62.703125 7.8125 59.421875 
L 7.8125 69.390625 
Q 13.765625 71.78125 18.9375 73 
Q 24.125 74.21875 28.421875 74.21875 
Q 39.75 74.21875 46.484375 68.546875 
Q 53.21875 62.890625 53.21875 53.421875 
Q 53.21875 48.921875 51.53125 44.890625 
Q 49.859375 40.875 45.40625 35.40625 
Q 44.1875 33.984375 37.640625 27.21875 
Q 31.109375 20.453125 19.1875 8.296875 
z
" id="DejaVuSans-50"/>
        <path d="M 31.78125 66.40625 
Q 24.171875 66.40625 20.328125 58.90625 
Q 16.5 51.421875 16.5 36.375 
Q 16.5 21.390625 20.328125 13.890625 
Q 24.171875 6.390625 31.78125 6.390625 
Q 39.453125 6.390625 43.28125 13.890625 
Q 47.125 21.390625 47.125 36.375 
Q 47.125 51.421875 43.28125 58.90625 
Q 39.453125 66.40625 31.78125 66.40625 
z
M 31.78125 74.21875 
Q 44.046875 74.21875 50.515625 64.515625 
Q 56.984375 54.828125 56.984375 36.375 
Q 56.984375 17.96875 50.515625 8.265625 
Q 44.046875 -1.421875 31.78125 -1.421875 
Q 19.53125 -1.421875 13.0625 8.265625 
Q 6.59375 17.96875 6.59375 36.375 
Q 6.59375 54.828125 13.0625 64.515625 
Q 19.53125 74.21875 31.78125 74.21875 
z
" id="DejaVuSans-48"/>
        <path d="M 12.40625 8.296875 
L 28.515625 8.296875 
L 28.515625 63.921875 
L 10.984375 60.40625 
L 10.984375 69.390625 
L 28.421875 72.90625 
L 38.28125 72.90625 
L 38.28125 8.296875 
L 54.390625 8.296875 
L 54.390625 0 
L 12.40625 0 
z
" id="DejaVuSans-49"/>
        <path d="M 10.984375 1.515625 
L 10.984375 10.5 
Q 14.703125 8.734375 18.5 7.8125 
Q 22.3125 6.890625 25.984375 6.890625 
Q 35.75 6.890625 40.890625 13.453125 
Q 46.046875 20.015625 46.78125 33.40625 
Q 43.953125 29.203125 39.59375 26.953125 
Q 35.25 24.703125 29.984375 24.703125 
Q 19.046875 24.703125 12.671875 31.3125 
Q 6.296875 37.9375 6.296875 49.421875 
Q 6.296875 60.640625 12.9375 67.421875 
Q 19.578125 74.21875 30.609375 74.21875 
Q 43.265625 74.21875 49.921875 64.515625 
Q 56.59375 54.828125 56.59375 36.375 
Q 56.59375 19.140625 48.40625 8.859375 
Q 40.234375 -1.421875 26.421875 -1.421875 
Q 22.703125 -1.421875 18.890625 -0.6875 
Q 15.09375 0.046875 10.984375 1.515625 
z
M 30.609375 32.421875 
Q 37.25 32.421875 41.125 36.953125 
Q 45.015625 41.5 45.015625 49.421875 
Q 45.015625 57.28125 41.125 61.84375 
Q 37.25 66.40625 30.609375 66.40625 
Q 23.96875 66.40625 20.09375 61.84375 
Q 16.21875 57.28125 16.21875 49.421875 
Q 16.21875 41.5 20.09375 36.953125 
Q 23.96875 32.421875 30.609375 32.421875 
z
" id="DejaVuSans-57"/>
        <path d="M 4.890625 31.390625 
L 31.203125 31.390625 
L 31.203125 23.390625 
L 4.890625 23.390625 
z
" id="DejaVuSans-45"/>
        <path d="M 10.796875 72.90625 
L 49.515625 72.90625 
L 49.515625 64.59375 
L 19.828125 64.59375 
L 19.828125 46.734375 
Q 21.96875 47.46875 24.109375 47.828125 
Q 26.265625 48.1875 28.421875 48.1875 
Q 40.625 48.1875 47.75 41.5 
Q 54.890625 34.8125 54.890625 23.390625 
Q 54.890625 11.625 47.5625 5.09375 
Q 40.234375 -1.421875 26.90625 -1.421875 
Q 22.3125 -1.421875 17.546875 -0.640625 
Q 12.796875 0.140625 7.71875 1.703125 
L 7.71875 11.625 
Q 12.109375 9.234375 16.796875 8.0625 
Q 21.484375 6.890625 26.703125 6.890625 
Q 35.15625 6.890625 40.078125 11.328125 
Q 45.015625 15.765625 45.015625 23.390625 
Q 45.015625 31 40.078125 35.4375 
Q 35.15625 39.890625 26.703125 39.890625 
Q 22.75 39.890625 18.8125 39.015625 
Q 14.890625 38.140625 10.796875 36.28125 
z
" id="DejaVuSans-53"/>
        <path d="M 31.78125 34.625 
Q 24.75 34.625 20.71875 30.859375 
Q 16.703125 27.09375 16.703125 20.515625 
Q 16.703125 13.921875 20.71875 10.15625 
Q 24.75 6.390625 31.78125 6.390625 
Q 38.8125 6.390625 42.859375 10.171875 
Q 46.921875 13.96875 46.921875 20.515625 
Q 46.921875 27.09375 42.890625 30.859375 
Q 38.875 34.625 31.78125 34.625 
z
M 21.921875 38.8125 
Q 15.578125 40.375 12.03125 44.71875 
Q 8.5 49.078125 8.5 55.328125 
Q 8.5 64.0625 14.71875 69.140625 
Q 20.953125 74.21875 31.78125 74.21875 
Q 42.671875 74.21875 48.875 69.140625 
Q 55.078125 64.0625 55.078125 55.328125 
Q 55.078125 49.078125 51.53125 44.71875 
Q 48 40.375 41.703125 38.8125 
Q 48.828125 37.15625 52.796875 32.3125 
Q 56.78125 27.484375 56.78125 20.515625 
Q 56.78125 9.90625 50.3125 4.234375 
Q 43.84375 -1.421875 31.78125 -1.421875 
Q 19.734375 -1.421875 13.25 4.234375 
Q 6.78125 9.90625 6.78125 20.515625 
Q 6.78125 27.484375 10.78125 32.3125 
Q 14.796875 37.15625 21.921875 38.8125 
z
M 18.3125 54.390625 
Q 18.3125 48.734375 21.84375 45.5625 
Q 25.390625 42.390625 31.78125 42.390625 
Q 38.140625 42.390625 41.71875 45.5625 
Q 45.3125 48.734375 45.3125 54.390625 
Q 45.3125 60.0625 41.71875 63.234375 
Q 38.140625 66.40625 31.78125 66.40625 
Q 25.390625 66.40625 21.84375 63.234375 
Q 18.3125 60.0625 18.3125 54.390625 
z
" id="DejaVuSans-56"/>
       </defs>
       <use xlink:href="#DejaVuSans-50"/>
       <use x="63.623047" xlink:href="#DejaVuSans-48"/>
       <use x="127.246094" xlink:href="#DejaVuSans-49"/>
       <use x="190.869141" xlink:href="#DejaVuSans-57"/>
       <use x="254.492188" xlink:href="#DejaVuSans-45"/>
       <use x="290.576172" xlink:href="#DejaVuSans-48"/>
       <use x="354.199219" xlink:href="#DejaVuSans-53"/>
       <use x="417.822266" xlink:href="#DejaVuSans-45"/>
       <use x="453.90625" xlink:href="#DejaVuSans-48"/>
       <use x="517.529297" xlink:href="#DejaVuSans-56"/>
      </g>
     </g>
    </g>
    <g id="xtick_2">
     <g id="line2d_2">
      <g>
       <use style="stroke:#000000;stroke-width:0.8;" x="109.714125" xlink:href="#m99cf255007" y="203.44368"/>
      </g>
     </g>
     <g id="text_2">
      <!-- 2019-05-15 -->
      <g transform="translate(58.344673 246.081932)rotate(-30)scale(0.1 -0.1)">
       <use xlink:href="#DejaVuSans-50"/>
       <use x="63.623047" xlink:href="#DejaVuSans-48"/>
       <use x="127.246094" xlink:href="#DejaVuSans-49"/>
       <use x="190.869141" xlink:href="#DejaVuSans-57"/>
       <use x="254.492188" xlink:href="#DejaVuSans-45"/>
       <use x="290.576172" xlink:href="#DejaVuSans-48"/>
       <use x="354.199219" xlink:href="#DejaVuSans-53"/>
       <use x="417.822266" xlink:href="#DejaVuSans-45"/>
       <use x="453.90625" xlink:href="#DejaVuSans-49"/>
       <use x="517.529297" xlink:href="#DejaVuSans-53"/>
      </g>
     </g>
    </g>
    <g id="xtick_3">
     <g id="line2d_3">
      <g>
       <use style="stroke:#000000;stroke-width:0.8;" x="157.059579" xlink:href="#m99cf255007" y="203.44368"/>
      </g>
     </g>
     <g id="text_3">
      <!-- 2019-05-22 -->
      <g transform="translate(105.690128 246.081932)rotate(-30)scale(0.1 -0.1)">
       <use xlink:href="#DejaVuSans-50"/>
       <use x="63.623047" xlink:href="#DejaVuSans-48"/>
       <use x="127.246094" xlink:href="#DejaVuSans-49"/>
       <use x="190.869141" xlink:href="#DejaVuSans-57"/>
       <use x="254.492188" xlink:href="#DejaVuSans-45"/>
       <use x="290.576172" xlink:href="#DejaVuSans-48"/>
       <use x="354.199219" xlink:href="#DejaVuSans-53"/>
       <use x="417.822266" xlink:href="#DejaVuSans-45"/>
       <use x="453.90625" xlink:href="#DejaVuSans-50"/>
       <use x="517.529297" xlink:href="#DejaVuSans-50"/>
      </g>
     </g>
    </g>
    <g id="xtick_4">
     <g id="line2d_4">
      <g>
       <use style="stroke:#000000;stroke-width:0.8;" x="224.695943" xlink:href="#m99cf255007" y="203.44368"/>
      </g>
     </g>
     <g id="text_4">
      <!-- 2019-06-01 -->
      <g transform="translate(173.326491 246.081932)rotate(-30)scale(0.1 -0.1)">
       <defs>
        <path d="M 33.015625 40.375 
Q 26.375 40.375 22.484375 35.828125 
Q 18.609375 31.296875 18.609375 23.390625 
Q 18.609375 15.53125 22.484375 10.953125 
Q 26.375 6.390625 33.015625 6.390625 
Q 39.65625 6.390625 43.53125 10.953125 
Q 47.40625 15.53125 47.40625 23.390625 
Q 47.40625 31.296875 43.53125 35.828125 
Q 39.65625 40.375 33.015625 40.375 
z
M 52.59375 71.296875 
L 52.59375 62.3125 
Q 48.875 64.0625 45.09375 64.984375 
Q 41.3125 65.921875 37.59375 65.921875 
Q 27.828125 65.921875 22.671875 59.328125 
Q 17.53125 52.734375 16.796875 39.40625 
Q 19.671875 43.65625 24.015625 45.921875 
Q 28.375 48.1875 33.59375 48.1875 
Q 44.578125 48.1875 50.953125 41.515625 
Q 57.328125 34.859375 57.328125 23.390625 
Q 57.328125 12.15625 50.6875 5.359375 
Q 44.046875 -1.421875 33.015625 -1.421875 
Q 20.359375 -1.421875 13.671875 8.265625 
Q 6.984375 17.96875 6.984375 36.375 
Q 6.984375 53.65625 15.1875 63.9375 
Q 23.390625 74.21875 37.203125 74.21875 
Q 40.921875 74.21875 44.703125 73.484375 
Q 48.484375 72.75 52.59375 71.296875 
z
" id="DejaVuSans-54"/>
       </defs>
       <use xlink:href="#DejaVuSans-50"/>
       <use x="63.623047" xlink:href="#DejaVuSans-48"/>
       <use x="127.246094" xlink:href="#DejaVuSans-49"/>
       <use x="190.869141" xlink:href="#DejaVuSans-57"/>
       <use x="254.492188" xlink:href="#DejaVuSans-45"/>
       <use x="290.576172" xlink:href="#DejaVuSans-48"/>
       <use x="354.199219" xlink:href="#DejaVuSans-54"/>
       <use x="417.822266" xlink:href="#DejaVuSans-45"/>
       <use x="453.90625" xlink:href="#DejaVuSans-48"/>
       <use x="517.529297" xlink:href="#DejaVuSans-49"/>
      </g>
     </g>
    </g>
    <g id="xtick_5">
     <g id="line2d_5">
      <g>
       <use style="stroke:#000000;stroke-width:0.8;" x="272.041397" xlink:href="#m99cf255007" y="203.44368"/>
      </g>
     </g>
     <g id="text_5">
      <!-- 2019-06-08 -->
      <g transform="translate(220.671946 246.081932)rotate(-30)scale(0.1 -0.1)">
       <use xlink:href="#DejaVuSans-50"/>
       <use x="63.623047" xlink:href="#DejaVuSans-48"/>
       <use x="127.246094" xlink:href="#DejaVuSans-49"/>
       <use x="190.869141" xlink:href="#DejaVuSans-57"/>
       <use x="254.492188" xlink:href="#DejaVuSans-45"/>
       <use x="290.576172" xlink:href="#DejaVuSans-48"/>
       <use x="354.199219" xlink:href="#DejaVuSans-54"/>
       <use x="417.822266" xlink:href="#DejaVuSans-45"/>
       <use x="453.90625" xlink:href="#DejaVuSans-48"/>
       <use x="517.529297" xlink:href="#DejaVuSans-56"/>
      </g>
     </g>
    </g>
    <g id="xtick_6">
     <g id="line2d_6">
      <g>
       <use style="stroke:#000000;stroke-width:0.8;" x="319.386852" xlink:href="#m99cf255007" y="203.44368"/>
      </g>
     </g>
     <g id="text_6">
      <!-- 2019-06-15 -->
      <g transform="translate(268.017401 246.081932)rotate(-30)scale(0.1 -0.1)">
       <use xlink:href="#DejaVuSans-50"/>
       <use x="63.623047" xlink:href="#DejaVuSans-48"/>
       <use x="127.246094" xlink:href="#DejaVuSans-49"/>
       <use x="190.869141" xlink:href="#DejaVuSans-57"/>
       <use x="254.492188" xlink:href="#DejaVuSans-45"/>
       <use x="290.576172" xlink:href="#DejaVuSans-48"/>
       <use x="354.199219" xlink:href="#DejaVuSans-54"/>
       <use x="417.822266" xlink:href="#DejaVuSans-45"/>
       <use x="453.90625" xlink:href="#DejaVuSans-49"/>
       <use x="517.529297" xlink:href="#DejaVuSans-53"/>
      </g>
     </g>
    </g>
    <g id="xtick_7">
     <g id="line2d_7">
      <g>
       <use style="stroke:#000000;stroke-width:0.8;" x="366.732306" xlink:href="#m99cf255007" y="203.44368"/>
      </g>
     </g>
     <g id="text_7">
      <!-- 2019-06-22 -->
      <g transform="translate(315.362855 246.081932)rotate(-30)scale(0.1 -0.1)">
       <use xlink:href="#DejaVuSans-50"/>
       <use x="63.623047" xlink:href="#DejaVuSans-48"/>
       <use x="127.246094" xlink:href="#DejaVuSans-49"/>
       <use x="190.869141" xlink:href="#DejaVuSans-57"/>
       <use x="254.492188" xlink:href="#DejaVuSans-45"/>
       <use x="290.576172" xlink:href="#DejaVuSans-48"/>
       <use x="354.199219" xlink:href="#DejaVuSans-54"/>
       <use x="417.822266" xlink:href="#DejaVuSans-45"/>
       <use x="453.90625" xlink:href="#DejaVuSans-50"/>
       <use x="517.529297" xlink:href="#DejaVuSans-50"/>
      </g>
     </g>
    </g>
    <g id="text_8">
     <!-- datetime -->
     <g transform="translate(185.779395 259.481432)scale(0.1 -0.1)">
      <defs>
       <path d="M 45.40625 46.390625 
L 45.40625 75.984375 
L 54.390625 75.984375 
L 54.390625 0 
L 45.40625 0 
L 45.40625 8.203125 
Q 42.578125 3.328125 38.25 0.953125 
Q 33.9375 -1.421875 27.875 -1.421875 
Q 17.96875 -1.421875 11.734375 6.484375 
Q 5.515625 14.40625 5.515625 27.296875 
Q 5.515625 40.1875 11.734375 48.09375 
Q 17.96875 56 27.875 56 
Q 33.9375 56 38.25 53.625 
Q 42.578125 51.265625 45.40625 46.390625 
z
M 14.796875 27.296875 
Q 14.796875 17.390625 18.875 11.75 
Q 22.953125 6.109375 30.078125 6.109375 
Q 37.203125 6.109375 41.296875 11.75 
Q 45.40625 17.390625 45.40625 27.296875 
Q 45.40625 37.203125 41.296875 42.84375 
Q 37.203125 48.484375 30.078125 48.484375 
Q 22.953125 48.484375 18.875 42.84375 
Q 14.796875 37.203125 14.796875 27.296875 
z
" id="DejaVuSans-100"/>
       <path d="M 34.28125 27.484375 
Q 23.390625 27.484375 19.1875 25 
Q 14.984375 22.515625 14.984375 16.5 
Q 14.984375 11.71875 18.140625 8.90625 
Q 21.296875 6.109375 26.703125 6.109375 
Q 34.1875 6.109375 38.703125 11.40625 
Q 43.21875 16.703125 43.21875 25.484375 
L 43.21875 27.484375 
z
M 52.203125 31.203125 
L 52.203125 0 
L 43.21875 0 
L 43.21875 8.296875 
Q 40.140625 3.328125 35.546875 0.953125 
Q 30.953125 -1.421875 24.3125 -1.421875 
Q 15.921875 -1.421875 10.953125 3.296875 
Q 6 8.015625 6 15.921875 
Q 6 25.140625 12.171875 29.828125 
Q 18.359375 34.515625 30.609375 34.515625 
L 43.21875 34.515625 
L 43.21875 35.40625 
Q 43.21875 41.609375 39.140625 45 
Q 35.0625 48.390625 27.6875 48.390625 
Q 23 48.390625 18.546875 47.265625 
Q 14.109375 46.140625 10.015625 43.890625 
L 10.015625 52.203125 
Q 14.9375 54.109375 19.578125 55.046875 
Q 24.21875 56 28.609375 56 
Q 40.484375 56 46.34375 49.84375 
Q 52.203125 43.703125 52.203125 31.203125 
z
" id="DejaVuSans-97"/>
       <path d="M 18.3125 70.21875 
L 18.3125 54.6875 
L 36.8125 54.6875 
L 36.8125 47.703125 
L 18.3125 47.703125 
L 18.3125 18.015625 
Q 18.3125 11.328125 20.140625 9.421875 
Q 21.96875 7.515625 27.59375 7.515625 
L 36.8125 7.515625 
L 36.8125 0 
L 27.59375 0 
Q 17.1875 0 13.234375 3.875 
Q 9.28125 7.765625 9.28125 18.015625 
L 9.28125 47.703125 
L 2.6875 47.703125 
L 2.6875 54.6875 
L 9.28125 54.6875 
L 9.28125 70.21875 
z
" id="DejaVuSans-116"/>
       <path d="M 56.203125 29.59375 
L 56.203125 25.203125 
L 14.890625 25.203125 
Q 15.484375 15.921875 20.484375 11.0625 
Q 25.484375 6.203125 34.421875 6.203125 
Q 39.59375 6.203125 44.453125 7.46875 
Q 49.3125 8.734375 54.109375 11.28125 
L 54.109375 2.78125 
Q 49.265625 0.734375 44.1875 -0.34375 
Q 39.109375 -1.421875 33.890625 -1.421875 
Q 20.796875 -1.421875 13.15625 6.1875 
Q 5.515625 13.8125 5.515625 26.8125 
Q 5.515625 40.234375 12.765625 48.109375 
Q 20.015625 56 32.328125 56 
Q 43.359375 56 49.78125 48.890625 
Q 56.203125 41.796875 56.203125 29.59375 
z
M 47.21875 32.234375 
Q 47.125 39.59375 43.09375 43.984375 
Q 39.0625 48.390625 32.421875 48.390625 
Q 24.90625 48.390625 20.390625 44.140625 
Q 15.875 39.890625 15.1875 32.171875 
z
" id="DejaVuSans-101"/>
       <path d="M 9.421875 54.6875 
L 18.40625 54.6875 
L 18.40625 0 
L 9.421875 0 
z
M 9.421875 75.984375 
L 18.40625 75.984375 
L 18.40625 64.59375 
L 9.421875 64.59375 
z
" id="DejaVuSans-105"/>
       <path d="M 52 44.1875 
Q 55.375 50.25 60.0625 53.125 
Q 64.75 56 71.09375 56 
Q 79.640625 56 84.28125 50.015625 
Q 88.921875 44.046875 88.921875 33.015625 
L 88.921875 0 
L 79.890625 0 
L 79.890625 32.71875 
Q 79.890625 40.578125 77.09375 44.375 
Q 74.3125 48.1875 68.609375 48.1875 
Q 61.625 48.1875 57.5625 43.546875 
Q 53.515625 38.921875 53.515625 30.90625 
L 53.515625 0 
L 44.484375 0 
L 44.484375 32.71875 
Q 44.484375 40.625 41.703125 44.40625 
Q 38.921875 48.1875 33.109375 48.1875 
Q 26.21875 48.1875 22.15625 43.53125 
Q 18.109375 38.875 18.109375 30.90625 
L 18.109375 0 
L 9.078125 0 
L 9.078125 54.6875 
L 18.109375 54.6875 
L 18.109375 46.1875 
Q 21.1875 51.21875 25.484375 53.609375 
Q 29.78125 56 35.6875 56 
Q 41.65625 56 45.828125 52.96875 
Q 50 49.953125 52 44.1875 
z
" id="DejaVuSans-109"/>
      </defs>
      <use xlink:href="#DejaVuSans-100"/>
      <use x="63.476562" xlink:href="#DejaVuSans-97"/>
      <use x="124.755859" xlink:href="#DejaVuSans-116"/>
      <use x="163.964844" xlink:href="#DejaVuSans-101"/>
      <use x="225.488281" xlink:href="#DejaVuSans-116"/>
      <use x="264.697266" xlink:href="#DejaVuSans-105"/>
      <use x="292.480469" xlink:href="#DejaVuSans-109"/>
      <use x="389.892578" xlink:href="#DejaVuSans-101"/>
     </g>
    </g>
   </g>
   <g id="matplotlib.axis_2">
    <g id="ytick_1">
     <g id="line2d_8">
      <defs>
       <path d="M 0 0 
L -3.5 0 
" id="mdecc51cdac" style="stroke:#000000;stroke-width:0.8;"/>
      </defs>
      <g>
       <use style="stroke:#000000;stroke-width:0.8;" x="40.950488" xlink:href="#mdecc51cdac" y="194.541862"/>
      </g>
     </g>
     <g id="text_9">
      <!-- 0 -->
      <g transform="translate(27.587988 198.34108)scale(0.1 -0.1)">
       <use xlink:href="#DejaVuSans-48"/>
      </g>
     </g>
    </g>
    <g id="ytick_2">
     <g id="line2d_9">
      <g>
       <use style="stroke:#000000;stroke-width:0.8;" x="40.950488" xlink:href="#mdecc51cdac" y="157.833333"/>
      </g>
     </g>
     <g id="text_10">
      <!-- 20 -->
      <g transform="translate(21.225488 161.632552)scale(0.1 -0.1)">
       <use xlink:href="#DejaVuSans-50"/>
       <use x="63.623047" xlink:href="#DejaVuSans-48"/>
      </g>
     </g>
    </g>
    <g id="ytick_3">
     <g id="line2d_10">
      <g>
       <use style="stroke:#000000;stroke-width:0.8;" x="40.950488" xlink:href="#mdecc51cdac" y="121.124805"/>
      </g>
     </g>
     <g id="text_11">
      <!-- 40 -->
      <g transform="translate(21.225488 124.924023)scale(0.1 -0.1)">
       <defs>
        <path d="M 37.796875 64.3125 
L 12.890625 25.390625 
L 37.796875 25.390625 
z
M 35.203125 72.90625 
L 47.609375 72.90625 
L 47.609375 25.390625 
L 58.015625 25.390625 
L 58.015625 17.1875 
L 47.609375 17.1875 
L 47.609375 0 
L 37.796875 0 
L 37.796875 17.1875 
L 4.890625 17.1875 
L 4.890625 26.703125 
z
" id="DejaVuSans-52"/>
       </defs>
       <use xlink:href="#DejaVuSans-52"/>
       <use x="63.623047" xlink:href="#DejaVuSans-48"/>
      </g>
     </g>
    </g>
    <g id="ytick_4">
     <g id="line2d_11">
      <g>
       <use style="stroke:#000000;stroke-width:0.8;" x="40.950488" xlink:href="#mdecc51cdac" y="84.416276"/>
      </g>
     </g>
     <g id="text_12">
      <!-- 60 -->
      <g transform="translate(21.225488 88.215495)scale(0.1 -0.1)">
       <use xlink:href="#DejaVuSans-54"/>
       <use x="63.623047" xlink:href="#DejaVuSans-48"/>
      </g>
     </g>
    </g>
    <g id="ytick_5">
     <g id="line2d_12">
      <g>
       <use style="stroke:#000000;stroke-width:0.8;" x="40.950488" xlink:href="#mdecc51cdac" y="47.707747"/>
      </g>
     </g>
     <g id="text_13">
      <!-- 80 -->
      <g transform="translate(21.225488 51.506966)scale(0.1 -0.1)">
       <use xlink:href="#DejaVuSans-56"/>
       <use x="63.623047" xlink:href="#DejaVuSans-48"/>
      </g>
     </g>
    </g>
    <g id="ytick_6">
     <g id="line2d_13">
      <g>
       <use style="stroke:#000000;stroke-width:0.8;" x="40.950488" xlink:href="#mdecc51cdac" y="10.999219"/>
      </g>
     </g>
     <g id="text_14">
      <!-- 100 -->
      <g transform="translate(14.862988 14.798438)scale(0.1 -0.1)">
       <use xlink:href="#DejaVuSans-49"/>
       <use x="63.623047" xlink:href="#DejaVuSans-48"/>
       <use x="127.246094" xlink:href="#DejaVuSans-48"/>
      </g>
     </g>
    </g>
   </g>
   <g id="line2d_14">
    <path clip-path="url(#pb1a53dcfcb)" d="M 56.450488 101.852827 
L 56.732306 111.947672 
M 63.214125 152.327054 
L 63.495943 156.91562 
M 69.977761 157.833333 
L 70.259579 156.91562 
M 76.741397 175.269884 
L 77.023216 173.434458 
M 83.505034 145.903061 
L 83.786852 155.997907 
M 90.26867 162.421899 
L 90.550488 157.833333 
M 97.032306 167.928178 
L 97.314125 167.928178 
M 103.795943 167.928178 
L 104.077761 173.434458 
M 110.559579 147.738488 
L 110.841397 153.244767 
M 135.641397 129.384223 
L 135.923216 129.384223 
L 136.205034 121.124805 
L 136.486852 122.960231 
L 137.050488 140.396782 
L 137.332306 151.409341 
L 137.614125 153.244767 
L 137.895943 159.66876 
L 138.177761 159.66876 
L 138.459579 155.997907 
L 139.023216 138.561356 
L 139.305034 139.479069 
L 139.86867 165.175039 
L 140.150488 162.421899 
L 140.432306 163.339612 
L 140.714125 165.175039 
L 140.995943 167.928178 
L 141.559579 133.97279 
L 141.841397 162.421899 
L 142.123216 160.586473 
L 142.405034 166.092752 
L 142.686852 146.820775 
L 142.96867 167.010465 
L 143.250488 171.599031 
L 143.532306 160.586473 
L 143.814125 164.257326 
L 144.095943 146.820775 
L 144.659579 175.269884 
L 144.941397 178.023024 
L 145.505034 157.833333 
L 145.786852 146.820775 
L 146.06867 124.795657 
L 146.350488 121.124805 
L 146.632306 138.561356 
L 146.914125 148.656201 
L 147.195943 148.656201 
L 147.477761 131.21965 
L 147.759579 135.808216 
L 148.041397 149.573914 
L 148.323216 147.738488 
M 333.759579 117.453952 
L 334.041397 129.384223 
L 334.323216 128.46651 
L 334.886852 116.536238 
L 335.16867 114.700812 
L 335.450488 111.947672 
L 335.732306 119.289378 
L 335.732306 119.289378 
" style="fill:none;stroke:#1f77b4;stroke-linecap:square;stroke-width:1.5;"/>
   </g>
   <g id="line2d_15">
    <path clip-path="url(#pb1a53dcfcb)" d="M 56.450488 148.656201 
L 56.732306 143.70055 
L 57.014125 102.03637 
L 57.577761 61.656988 
L 57.859579 51.929228 
L 58.423216 91.757982 
L 58.986852 157.64979 
L 59.26867 170.681318 
L 59.550488 175.086342 
L 59.832306 170.314233 
L 60.114125 174.352171 
L 60.395943 173.067372 
L 60.959579 153.611852 
L 61.241397 155.263736 
L 61.523216 145.352433 
L 61.805034 128.099425 
L 62.086852 132.320906 
L 62.36867 128.833596 
L 62.650488 132.137363 
L 62.932306 153.978938 
L 63.214125 158.567504 
L 63.495943 166.459837 
L 63.777761 169.763605 
L 64.059579 166.092752 
L 64.623216 154.713108 
L 65.186852 163.339612 
L 65.46867 158.383961 
L 65.750488 133.238619 
L 66.032306 155.263736 
L 66.314125 166.826923 
L 66.595943 168.295264 
L 66.877761 148.105573 
L 67.159579 146.820775 
L 67.441397 123.694402 
L 67.723216 140.763867 
L 68.005034 143.517007 
L 68.286852 118.73875 
L 68.56867 124.245029 
L 68.850488 104.789509 
L 69.132306 135.441131 
L 69.414125 148.289116 
L 69.695943 167.561093 
L 69.977761 175.086342 
L 70.259579 176.187597 
L 70.541397 175.453427 
L 70.823216 166.459837 
L 71.386852 101.485742 
L 71.66867 104.605967 
L 71.950488 135.441131 
L 72.232306 135.257588 
L 72.514125 115.434983 
L 72.795943 131.770278 
L 73.077761 130.118394 
L 73.359579 155.447279 
L 73.641397 149.390372 
L 73.923216 150.67517 
L 74.486852 139.662611 
L 74.76867 149.757457 
L 75.050488 150.858713 
L 75.614125 131.21965 
L 76.177761 145.535976 
L 77.023216 168.662349 
L 77.305034 167.010465 
L 77.586852 156.91562 
L 77.86867 125.162743 
L 78.432306 89.371927 
L 78.714125 83.131477 
L 78.995943 96.53009 
L 79.559579 151.959969 
L 79.841397 148.105573 
L 80.123216 154.16248 
L 80.405034 140.763867 
L 80.686852 140.213239 
L 80.96867 138.010728 
L 81.250488 125.162743 
L 81.532306 133.238619 
L 82.095943 114.517269 
L 82.941397 146.820775 
L 83.223216 149.023286 
L 83.505034 166.092752 
L 83.786852 167.194008 
M 84.914125 141.498038 
L 85.195943 141.314495 
L 85.759579 129.017138 
L 86.041397 126.998169 
L 86.605034 139.111984 
L 86.886852 138.010728 
L 87.16867 161.871271 
L 87.450488 161.504186 
L 87.732306 158.751046 
L 88.014125 135.808216 
L 88.295943 133.789247 
L 88.577761 137.276557 
L 88.859579 150.124542 
L 89.141397 155.814364 
L 89.423216 143.70055 
L 89.705034 146.086604 
L 90.26867 159.301674 
L 90.550488 162.972527 
L 90.832306 165.175039 
L 91.114125 164.807954 
L 91.395943 159.301674 
L 91.677761 157.64979 
L 91.959579 165.358581 
L 92.241397 167.744636 
L 92.523216 173.067372 
L 92.805034 173.618 
L 93.086852 173.618 
L 93.36867 174.535714 
L 93.650488 178.573652 
L 94.214125 176.921768 
L 94.777761 169.029434 
L 95.059579 161.137101 
L 95.341397 158.751046 
L 95.623216 150.308085 
L 96.186852 109.194533 
L 96.46867 134.890503 
L 97.032306 159.852302 
L 97.314125 160.586473 
L 97.595943 159.852302 
L 97.877761 148.472658 
L 98.159579 124.245029 
L 98.441397 111.580587 
L 98.723216 119.289378 
L 99.56867 171.048403 
L 99.850488 176.921768 
L 100.132306 177.655939 
L 100.695943 174.902799 
L 100.977761 175.086342 
L 101.259579 172.333202 
L 101.541397 170.681318 
L 101.823216 166.092752 
L 102.105034 150.67517 
L 102.386852 142.599294 
L 102.66867 138.744898 
L 102.950488 144.43472 
L 103.232306 152.694139 
L 103.795943 159.485217 
L 104.077761 159.66876 
L 104.359579 153.978938 
L 104.923216 123.694402 
L 105.205034 109.928703 
L 105.486852 118.73875 
L 106.050488 159.66876 
L 106.332306 170.864861 
L 106.895943 175.820512 
L 107.177761 174.352171 
L 107.459579 166.64338 
L 107.741397 169.947148 
L 108.305034 162.054814 
L 108.586852 161.687729 
L 109.150488 142.415751 
L 109.432306 141.314495 
L 109.714125 137.827185 
L 110.277761 160.035845 
L 110.559579 162.972527 
L 110.841397 163.706698 
L 111.123216 161.687729 
L 111.405034 141.498038 
L 111.686852 109.194533 
L 111.96867 106.25785 
L 112.250488 135.624673 
L 112.532306 147.371402 
L 112.814125 194.541862 
L 113.377761 194.541862 
L 113.659579 177.288853 
L 113.941397 176.187597 
L 114.223216 172.700287 
L 114.505034 170.864861 
L 114.786852 172.149659 
L 115.06867 170.864861 
L 115.632306 157.282705 
L 115.914125 139.295526 
L 116.477761 113.599556 
L 116.759579 137.827185 
L 117.041397 144.251178 
L 117.323216 146.820775 
L 117.605034 145.535976 
L 117.886852 143.333464 
L 118.16867 126.631084 
L 118.450488 97.998431 
M 119.014125 121.124805 
L 119.295943 122.22606 
L 119.577761 140.396782 
L 119.859579 169.763605 
L 120.141397 175.269884 
L 120.423216 177.655939 
L 120.705034 178.940737 
L 120.986852 179.674908 
L 121.26867 176.004055 
L 121.550488 175.636969 
L 122.114125 165.358581 
L 122.395943 168.111721 
L 122.677761 149.023286 
L 122.959579 149.940999 
L 123.241397 126.447541 
L 123.523216 114.333727 
L 123.805034 109.561618 
L 124.086852 146.637232 
L 124.36867 149.390372 
L 124.932306 142.415751 
L 125.214125 132.137363 
L 125.777761 93.593408 
L 126.341397 83.498563 
L 126.905034 115.434983 
L 127.186852 109.194533 
L 128.032306 153.795395 
L 128.314125 156.548535 
L 128.877761 132.871534 
L 129.159579 149.206829 
L 129.441397 151.409341 
L 129.723216 149.940999 
L 130.005034 142.782836 
L 130.286852 131.95382 
L 130.56867 136.725929 
L 130.850488 125.896913 
L 131.132306 141.314495 
L 131.414125 164.991496 
L 131.695943 164.073783 
L 131.977761 157.64979 
L 132.259579 153.978938 
L 132.541397 144.251178 
L 132.823216 157.099163 
L 133.105034 155.814364 
L 133.386852 150.308085 
L 133.950488 170.864861 
L 134.232306 175.269884 
L 135.077761 167.744636 
L 135.359579 171.048403 
L 135.641397 167.928178 
L 135.923216 70.650578 
L 136.205034 128.099425 
L 136.486852 85.701074 
L 136.76867 79.82771 
L 137.050488 102.403455 
L 137.332306 103.504711 
L 137.614125 130.485479 
L 137.895943 124.612115 
L 138.177761 127.73234 
L 138.459579 122.22606 
L 138.741397 119.472921 
L 139.023216 137.4601 
L 139.305034 135.074045 
L 139.586852 136.358844 
L 139.86867 133.97279 
L 140.150488 137.643642 
L 140.432306 134.70696 
L 140.714125 143.333464 
L 140.995943 155.997907 
L 141.277761 150.858713 
L 141.559579 136.358844 
L 141.841397 134.890503 
L 142.123216 132.320906 
L 142.405034 134.523417 
L 142.686852 100.568028 
L 143.250488 151.959969 
L 143.532306 153.795395 
L 144.377761 171.048403 
L 144.659579 172.333202 
L 144.941397 171.415489 
L 145.223216 167.194008 
L 145.505034 148.289116 
L 145.786852 120.941262 
L 146.06867 108.460362 
L 146.632306 111.029959 
L 146.914125 113.966641 
L 147.477761 150.858713 
L 147.759579 151.042255 
L 148.041397 144.067635 
L 148.323216 145.903061 
L 148.605034 135.074045 
L 148.886852 149.390372 
L 149.16867 135.441131 
L 149.450488 155.447279 
L 149.732306 154.896651 
L 150.014125 157.282705 
L 150.295943 156.548535 
L 150.577761 158.567504 
L 150.859579 163.523155 
L 151.141397 164.624411 
L 151.423216 162.054814 
L 151.705034 161.687729 
L 151.986852 160.586473 
L 152.550488 79.644167 
L 152.832306 91.757982 
L 153.114125 95.061749 
L 153.395943 106.25785 
L 153.677761 138.744898 
L 153.959579 147.738488 
L 154.241397 138.561356 
L 154.523216 103.321168 
L 154.805034 106.808478 
L 155.086852 127.365254 
L 155.36867 116.903324 
L 155.650488 56.884879 
L 155.932306 94.878207 
L 156.214125 102.77054 
L 156.495943 119.656463 
L 156.777761 115.618525 
L 157.059579 133.605704 
L 157.623216 144.801805 
L 157.905034 143.333464 
L 158.186852 159.301674 
L 158.46867 148.289116 
L 159.032306 111.76413 
L 159.314125 55.600081 
L 159.595943 56.150709 
L 159.877761 64.59367 
L 160.441397 88.454214 
L 160.723216 116.352696 
L 161.005034 117.086866 
L 161.286852 123.877944 
L 161.56867 121.124805 
L 161.850488 133.605704 
L 162.414125 128.282968 
L 162.695943 131.95382 
L 162.977761 128.099425 
L 163.259579 112.131215 
L 163.823216 139.846154 
L 164.105034 80.56188 
L 164.386852 96.713633 
L 164.66867 97.080718 
L 165.232306 53.581112 
L 165.795943 68.448066 
L 166.359579 26.049715 
L 166.641397 16.505498 
L 166.923216 48.809003 
L 167.205034 142.599294 
L 167.486852 163.339612 
L 167.76867 164.440868 
L 168.050488 155.630821 
L 168.332306 162.972527 
L 168.895943 161.871271 
L 169.177761 152.877682 
L 169.459579 151.409341 
L 170.023216 132.504448 
L 170.586852 80.928966 
L 170.86867 151.959969 
L 171.150488 134.339875 
L 171.432306 141.681581 
L 171.714125 142.415751 
L 171.995943 158.934589 
L 172.559579 128.650053 
L 172.841397 119.840006 
L 173.123216 93.960493 
L 173.96867 142.048666 
L 174.250488 120.023549 
L 174.532306 140.763867 
L 175.095943 156.91562 
L 175.377761 152.877682 
L 175.659579 144.43472 
L 176.223216 151.776426 
L 176.505034 154.346023 
L 176.786852 136.358844 
L 177.06867 161.320643 
L 177.350488 161.504186 
L 177.632306 164.257326 
L 177.914125 162.605442 
L 178.195943 171.048403 
L 178.477761 157.282705 
M 179.605034 126.814626 
L 179.886852 117.270409 
L 180.16867 112.865386 
L 180.732306 146.270147 
L 181.014125 158.751046 
L 181.295943 160.40293 
L 181.577761 146.637232 
L 181.859579 151.225798 
L 182.141397 139.479069 
L 182.423216 135.991759 
L 182.705034 156.732077 
L 182.986852 138.744898 
L 183.26867 153.978938 
L 183.550488 114.517269 
L 183.832306 122.042518 
L 184.114125 77.258113 
L 184.395943 65.694926 
L 184.677761 71.568291 
L 184.959579 103.137625 
L 185.241397 151.592883 
L 185.805034 153.611852 
L 186.086852 163.706698 
L 186.650488 169.947148 
L 186.932306 174.352171 
L 187.214125 175.636969 
L 187.495943 173.801543 
L 187.777761 170.13069 
L 188.059579 173.434458 
L 188.341397 171.599031 
L 188.623216 166.459837 
L 188.905034 173.067372 
L 189.186852 163.15607 
L 189.46867 162.788984 
L 189.750488 152.694139 
L 190.032306 161.871271 
L 190.314125 164.073783 
L 190.595943 164.991496 
L 190.877761 166.64338 
L 191.159579 175.636969 
L 191.441397 177.105311 
L 191.723216 181.510334 
L 192.286852 185.731815 
L 192.56867 182.61159 
L 193.132306 141.130953 
L 193.414125 140.396782 
L 193.695943 131.770278 
L 193.977761 136.909472 
L 194.259579 151.776426 
L 194.541397 159.118132 
L 194.823216 162.788984 
L 195.105034 162.421899 
L 195.386852 162.788984 
L 195.66867 147.554945 
L 195.950488 151.225798 
L 196.232306 152.510596 
L 196.514125 147.554945 
L 196.795943 153.978938 
L 197.077761 153.611852 
L 197.359579 160.035845 
L 197.641397 158.016876 
L 197.923216 153.061224 
L 198.486852 179.491365 
L 198.76867 182.795133 
L 199.050488 183.34576 
L 199.332306 178.206566 
L 199.895943 141.681581 
L 200.177761 132.504448 
L 200.459579 137.276557 
L 200.741397 149.940999 
L 201.023216 154.896651 
L 201.305034 156.91562 
L 201.586852 149.023286 
L 201.86867 160.586473 
L 202.150488 160.035845 
L 202.432306 148.656201 
L 202.714125 145.903061 
L 203.277761 164.807954 
L 203.841397 157.099163 
L 204.123216 157.099163 
L 204.405034 157.466248 
L 204.686852 148.105573 
L 205.532306 159.66876 
L 205.814125 157.282705 
L 206.095943 150.308085 
L 206.659579 109.194533 
L 206.941397 101.852827 
L 207.223216 110.662874 
L 207.505034 131.21965 
L 207.786852 138.19427 
L 208.350488 170.314233 
L 208.632306 161.871271 
L 208.914125 194.541862 
L 209.195943 194.541862 
L 209.477761 157.64979 
L 210.041397 148.105573 
L 210.323216 150.308085 
L 210.886852 163.523155 
L 211.16867 159.66876 
L 211.450488 158.016876 
L 211.732306 158.934589 
L 212.014125 171.782574 
L 212.295943 177.288853 
L 212.577761 175.086342 
L 212.859579 175.453427 
L 213.423216 170.13069 
L 213.705034 160.953558 
L 214.550488 169.212977 
L 214.832306 167.194008 
L 215.114125 168.478806 
L 215.395943 164.991496 
L 215.677761 167.194008 
L 215.959579 170.681318 
L 216.241397 171.048403 
L 216.523216 157.099163 
L 216.805034 153.978938 
L 217.086852 152.510596 
L 217.36867 154.346023 
L 217.650488 145.168891 
L 217.932306 144.985348 
L 218.214125 140.213239 
L 218.495943 144.618263 
L 219.059579 113.599556 
L 219.341397 120.941262 
L 219.623216 137.4601 
L 219.905034 126.263999 
L 220.186852 123.694402 
L 220.46867 107.542649 
L 220.750488 127.365254 
L 221.032306 158.567504 
L 221.877761 170.13069 
L 222.159579 169.212977 
L 222.441397 166.276295 
L 222.723216 166.276295 
L 223.005034 164.624411 
L 223.56867 148.289116 
L 223.850488 151.776426 
L 224.132306 126.631084 
L 224.414125 84.049191 
L 224.695943 69.732864 
L 224.977761 44.587522 
L 225.259579 39.081243 
L 225.823216 69.549322 
M 226.950488 112.681843 
L 227.232306 109.378075 
L 227.795943 150.67517 
L 228.077761 169.212977 
L 228.641397 175.453427 
L 229.205034 176.187597 
L 229.486852 175.820512 
L 229.76867 172.88383 
L 230.050488 172.88383 
L 230.332306 167.928178 
L 230.614125 149.390372 
L 230.895943 114.517269 
L 231.177761 103.871796 
L 231.459579 106.25785 
L 231.741397 134.523417 
L 232.023216 124.612115 
L 232.305034 124.428572 
L 232.586852 122.593146 
L 232.86867 151.959969 
L 233.150488 149.573914 
L 233.432306 126.263999 
L 233.714125 150.308085 
L 233.995943 161.320643 
L 234.559579 155.997907 
L 234.841397 161.320643 
L 235.123216 170.497775 
L 235.405034 173.434458 
L 235.96867 167.010465 
L 236.250488 169.029434 
L 236.532306 168.111721 
L 236.814125 168.111721 
L 237.095943 165.909209 
L 237.377761 147.18786 
L 237.659579 119.472921 
L 237.941397 126.814626 
L 238.505034 161.687729 
L 238.786852 165.725667 
L 239.06867 172.88383 
L 239.350488 173.067372 
L 239.632306 176.554683 
L 239.914125 173.618 
L 240.477761 113.599556 
L 240.759579 102.77054 
L 241.041397 113.966641 
L 241.323216 110.112246 
L 241.605034 136.358844 
L 242.16867 153.978938 
L 242.450488 147.18786 
L 242.732306 151.959969 
L 243.014125 149.023286 
L 243.295943 148.105573 
L 243.577761 149.757457 
L 243.859579 152.143511 
L 244.423216 133.97279 
L 244.705034 137.4601 
L 244.986852 138.561356 
L 245.26867 112.681843 
L 245.550488 98.365517 
L 246.114125 130.301937 
L 246.395943 118.188122 
L 246.677761 141.681581 
L 246.959579 127.548797 
L 247.241397 106.992021 
L 247.523216 96.346548 
L 247.805034 101.302199 
L 248.36867 151.776426 
L 248.650488 158.567504 
L 248.932306 162.054814 
L 249.214125 162.605442 
L 249.495943 161.320643 
L 249.777761 155.080193 
L 250.059579 146.270147 
L 250.341397 151.592883 
L 250.623216 148.289116 
L 250.905034 163.339612 
L 251.186852 163.523155 
L 251.750488 133.055076 
L 252.032306 161.871271 
L 252.314125 165.725667 
L 252.595943 174.719256 
L 252.877761 171.782574 
L 253.159579 164.807954 
L 253.441397 149.573914 
L 253.723216 122.593146 
L 254.005034 128.833596 
L 254.286852 126.814626 
L 254.56867 129.751309 
L 254.850488 126.998169 
L 255.132306 117.270409 
L 255.414125 86.251702 
L 255.977761 132.871534 
L 256.259579 124.245029 
L 256.541397 96.346548 
L 256.823216 124.9792 
L 257.105034 104.973052 
L 257.386852 119.656463 
L 257.66867 125.162743 
L 257.950488 125.713371 
L 258.514125 138.928441 
L 258.795943 136.175301 
L 259.359579 161.504186 
L 259.641397 166.64338 
L 259.923216 159.301674 
L 260.486852 120.574177 
L 260.76867 120.207091 
L 261.050488 115.434983 
L 261.332306 128.46651 
L 261.614125 146.820775 
L 262.177761 164.440868 
L 262.459579 164.257326 
L 262.741397 165.175039 
L 263.023216 166.826923 
M 267.532306 141.498038 
L 267.814125 152.327054 
L 268.377761 131.21965 
L 268.659579 135.624673 
L 268.941397 145.535976 
L 269.223216 161.871271 
L 269.786852 170.497775 
L 270.06867 165.909209 
L 270.350488 158.751046 
L 270.632306 158.751046 
L 270.914125 159.485217 
L 271.195943 158.016876 
L 271.477761 158.934589 
L 271.759579 164.624411 
L 272.041397 167.561093 
L 272.323216 168.111721 
L 272.605034 173.801543 
L 273.16867 179.12428 
L 273.732306 174.902799 
L 274.014125 168.662349 
L 274.295943 169.212977 
L 274.577761 168.845892 
L 275.141397 173.067372 
L 275.423216 175.636969 
L 275.705034 175.453427 
L 275.986852 177.655939 
L 276.26867 174.168628 
L 276.550488 175.636969 
L 276.832306 173.067372 
L 277.114125 168.662349 
L 277.395943 167.377551 
L 277.677761 154.16248 
M 278.523216 127.181712 
L 278.805034 130.669022 
L 279.36867 91.941524 
L 279.650488 119.289378 
L 279.932306 100.568028 
L 280.214125 100.017401 
L 280.495943 115.618525 
L 280.777761 117.086866 
L 281.341397 134.523417 
L 281.623216 139.111984 
L 281.905034 148.656201 
L 282.186852 164.073783 
L 282.46867 167.744636 
L 282.750488 167.744636 
L 283.032306 175.820512 
L 283.314125 180.041993 
L 283.595943 181.326791 
L 284.159579 170.681318 
L 284.441397 158.751046 
L 284.723216 138.377813 
L 285.005034 133.605704 
L 285.286852 137.827185 
L 285.56867 126.447541 
L 285.850488 121.308347 
L 286.414125 159.118132 
L 286.695943 161.871271 
L 286.977761 161.504186 
L 287.259579 169.39652 
L 287.823216 145.535976 
L 288.105034 152.327054 
L 288.386852 163.523155 
L 288.66867 160.586473 
L 288.950488 168.662349 
L 289.232306 172.149659 
L 289.514125 173.067372 
L 289.795943 176.921768 
L 290.077761 177.105311 
L 290.359579 173.067372 
L 290.923216 159.485217 
L 291.205034 160.770015 
L 291.486852 153.611852 
L 291.76867 153.061224 
L 292.050488 151.409341 
L 292.332306 149.023286 
L 292.614125 150.308085 
L 292.895943 158.567504 
L 293.177761 159.485217 
L 293.459579 140.213239 
L 293.741397 135.257588 
L 294.023216 97.814889 
L 294.305034 86.80233 
L 294.586852 92.859237 
L 294.86867 88.087129 
L 295.432306 136.358844 
L 295.714125 153.978938 
L 296.277761 171.415489 
L 296.559579 170.497775 
L 297.405034 153.061224 
L 297.96867 112.681843 
L 298.250488 128.282968 
L 298.532306 116.169153 
L 298.814125 95.245292 
L 299.095943 85.517532 
L 299.377761 118.371665 
L 299.659579 126.263999 
L 299.941397 117.637494 
L 300.223216 130.852565 
L 300.505034 127.915882 
L 300.786852 112.131215 
L 301.06867 116.169153 
L 301.350488 124.061487 
L 301.632306 113.048928 
L 302.195943 145.535976 
L 302.477761 194.541862 
L 302.759579 194.541862 
L 303.041397 166.276295 
L 303.605034 157.282705 
L 303.886852 163.706698 
L 304.16867 151.225798 
L 304.450488 150.124542 
L 304.732306 148.105573 
L 305.014125 151.592883 
L 305.295943 140.94741 
L 305.577761 140.763867 
L 305.859579 147.554945 
L 306.141397 145.168891 
L 306.423216 157.833333 
L 306.705034 160.219387 
L 306.986852 161.504186 
L 307.26867 160.035845 
L 307.550488 149.390372 
L 307.832306 126.631084 
L 308.114125 121.49189 
L 308.395943 119.472921 
L 309.241397 149.573914 
L 309.523216 152.877682 
L 309.805034 161.687729 
L 310.086852 161.137101 
L 310.36867 158.934589 
L 310.932306 128.282968 
L 311.214125 124.428572 
L 311.495943 150.491627 
L 312.059579 136.725929 
L 312.623216 51.562143 
L 312.905034 50.827972 
L 313.186852 58.353221 
L 313.46867 69.549322 
L 313.750488 72.302461 
L 314.032306 105.52368 
L 314.314125 124.9792 
L 314.877761 76.523942 
L 315.723216 143.333464 
L 316.286852 154.529566 
L 316.56867 163.15607 
L 317.132306 168.478806 
L 317.414125 166.64338 
L 317.695943 159.852302 
L 317.977761 164.073783 
L 318.259579 159.66876 
L 318.541397 148.656201 
L 319.105034 93.593408 
L 319.386852 129.751309 
L 319.950488 140.213239 
L 320.232306 141.314495 
L 320.514125 132.320906 
M 321.641397 128.833596 
L 321.923216 150.308085 
L 322.205034 162.238357 
L 322.486852 168.845892 
L 322.76867 172.333202 
L 323.050488 174.168628 
L 323.332306 177.288853 
L 323.614125 178.023024 
L 323.895943 176.921768 
L 324.177761 175.269884 
L 324.459579 174.902799 
L 324.741397 174.168628 
L 325.023216 168.845892 
L 325.305034 168.478806 
L 325.586852 166.64338 
L 325.86867 162.972527 
L 326.432306 153.061224 
L 326.995943 171.048403 
L 327.277761 173.618 
L 327.559579 173.985086 
L 327.841397 173.067372 
L 328.123216 168.845892 
L 328.405034 173.250915 
L 328.686852 175.820512 
L 328.96867 176.37114 
L 329.532306 178.573652 
L 329.814125 170.864861 
L 330.095943 173.985086 
L 330.377761 178.573652 
L 330.659579 179.674908 
L 330.941397 179.12428 
L 331.223216 177.655939 
L 331.505034 172.88383 
L 331.786852 171.966117 
L 332.06867 168.111721 
L 332.350488 151.776426 
L 332.914125 90.656726 
L 333.195943 71.017663 
L 333.477761 67.34681 
L 333.759579 86.618788 
L 334.323216 104.422424 
L 334.605034 110.662874 
L 334.886852 112.314758 
L 335.16867 98.549059 
L 335.450488 94.694664 
L 335.732306 99.833858 
L 336.295943 165.175039 
L 336.577761 166.64338 
L 336.859579 176.004055 
L 337.141397 176.921768 
L 337.705034 170.497775 
L 337.986852 172.700287 
L 338.26867 167.194008 
L 338.550488 166.276295 
L 338.832306 166.64338 
L 339.114125 156.91562 
L 339.959579 60.005104 
L 340.523216 84.232733 
L 340.805034 121.49189 
L 341.086852 111.029959 
L 341.36867 145.903061 
L 341.650488 132.504448 
L 341.932306 100.200943 
L 342.214125 97.998431 
L 342.495943 103.504711 
L 345.595943 166.459837 
L 345.877761 163.339612 
L 346.159579 152.143511 
L 346.441397 122.409603 
L 349.823216 145.719519 
L 357.432306 158.934589 
L 357.714125 157.64979 
L 357.995943 159.118132 
L 358.277761 159.66876 
L 358.559579 151.959969 
L 358.841397 150.67517 
L 359.123216 148.105573 
L 359.405034 155.263736 
L 359.686852 148.839744 
L 359.96867 145.903061 
L 360.250488 154.529566 
L 360.532306 157.833333 
L 360.532306 157.833333 
" style="fill:none;stroke:#ff7f0e;stroke-linecap:square;stroke-width:1.5;"/>
   </g>
   <g id="line2d_16">
    <path clip-path="url(#pb1a53dcfcb)" d="M 56.16867 152.327054 
L 56.450488 159.66876 
L 56.732306 159.66876 
L 57.014125 165.175039 
M 57.577761 146.820775 
L 57.859579 135.808216 
L 58.141397 135.808216 
L 58.423216 143.149922 
L 58.705034 155.997907 
L 58.986852 155.997907 
L 59.26867 161.504186 
L 59.550488 157.833333 
L 59.832306 161.504186 
L 60.114125 157.833333 
L 60.395943 157.833333 
L 60.677761 155.997907 
L 60.959579 157.833333 
L 61.241397 157.833333 
L 61.523216 150.491627 
L 61.805034 150.491627 
M 62.36867 150.491627 
L 62.650488 159.66876 
L 62.932306 159.66876 
L 63.214125 157.833333 
L 63.495943 157.833333 
L 63.777761 159.66876 
L 64.059579 159.66876 
L 64.341397 141.314495 
L 64.623216 132.137363 
L 64.905034 128.46651 
L 65.186852 133.97279 
L 65.46867 143.149922 
L 66.032306 146.820775 
L 66.314125 146.820775 
L 66.595943 150.491627 
L 66.877761 144.985348 
L 67.159579 143.149922 
L 67.441397 137.643642 
L 67.723216 121.124805 
L 68.005034 148.656201 
L 68.286852 141.314495 
L 68.56867 146.820775 
M 69.132306 148.656201 
L 69.414125 139.479069 
M 69.977761 137.643642 
L 70.259579 137.643642 
L 70.541397 133.97279 
L 71.386852 133.97279 
L 71.66867 130.301937 
L 71.950488 128.46651 
L 72.232306 143.149922 
L 72.514125 144.985348 
L 72.795943 139.479069 
L 73.077761 144.985348 
L 73.359579 132.137363 
L 73.641397 16.505498 
L 73.923216 71.568291 
L 74.205034 84.416276 
L 74.486852 88.087129 
L 74.76867 80.745423 
L 75.050488 86.251702 
L 75.332306 75.239144 
L 75.614125 86.251702 
L 75.895943 86.251702 
L 76.177761 99.099687 
L 76.459579 99.099687 
L 76.741397 119.289378 
L 77.023216 119.289378 
L 77.305034 121.124805 
L 77.586852 121.124805 
L 77.86867 122.960231 
L 78.150488 128.46651 
L 78.432306 122.960231 
L 78.714125 132.137363 
L 79.277761 141.314495 
L 79.559579 143.149922 
L 79.841397 146.820775 
L 80.123216 148.656201 
L 80.405034 148.656201 
L 80.686852 150.491627 
L 80.96867 146.820775 
L 81.250488 146.820775 
L 81.532306 141.314495 
L 82.095943 141.314495 
L 82.377761 137.643642 
L 82.659579 137.643642 
L 82.941397 144.985348 
L 83.223216 144.985348 
L 83.505034 135.808216 
L 83.786852 135.808216 
L 84.06867 130.301937 
L 84.350488 130.301937 
L 84.632306 139.479069 
L 84.914125 139.479069 
L 85.195943 144.985348 
L 85.477761 139.479069 
M 87.16867 143.149922 
L 87.450488 146.820775 
L 87.732306 143.149922 
L 88.295943 133.97279 
L 88.577761 133.97279 
L 88.859579 132.137363 
L 89.141397 126.631084 
L 89.423216 126.631084 
L 89.705034 130.301937 
L 89.986852 130.301937 
L 90.26867 124.795657 
L 90.550488 124.795657 
L 90.832306 128.46651 
L 91.114125 128.46651 
L 91.395943 124.795657 
L 91.677761 113.783099 
L 91.959579 135.808216 
L 92.241397 146.820775 
L 92.523216 146.820775 
L 92.805034 155.997907 
L 93.36867 159.66876 
L 93.650488 155.997907 
L 94.495943 150.491627 
L 94.777761 154.16248 
L 95.341397 154.16248 
L 95.623216 155.997907 
L 95.905034 154.16248 
L 96.750488 154.16248 
L 97.032306 150.491627 
L 97.314125 150.491627 
L 97.595943 133.97279 
L 97.877761 133.97279 
L 98.159579 122.960231 
L 98.441397 122.960231 
L 98.723216 137.643642 
L 99.286852 144.985348 
L 99.56867 146.820775 
L 99.850488 150.491627 
L 100.414125 146.820775 
L 100.695943 143.149922 
L 101.259579 139.479069 
L 101.541397 139.479069 
L 101.823216 137.643642 
L 102.950488 137.643642 
L 103.232306 152.327054 
L 103.514125 152.327054 
L 103.795943 146.820775 
L 104.077761 146.820775 
L 104.359579 139.479069 
L 104.641397 139.479069 
L 104.923216 133.97279 
L 105.205034 132.137363 
L 105.486852 133.97279 
L 105.76867 139.479069 
L 106.050488 137.643642 
L 106.332306 144.985348 
L 106.614125 148.656201 
L 107.177761 148.656201 
L 107.741397 135.808216 
L 108.023216 133.97279 
L 108.586852 143.149922 
L 108.86867 144.985348 
L 109.150488 148.656201 
L 109.432306 146.820775 
L 109.714125 146.820775 
L 109.995943 154.16248 
M 110.559579 154.16248 
L 110.841397 154.16248 
L 111.123216 148.656201 
L 111.405034 148.656201 
L 111.686852 133.97279 
L 111.96867 133.97279 
L 112.814125 128.46651 
L 113.095943 130.301937 
L 113.377761 139.479069 
L 113.659579 137.643642 
L 113.941397 139.479069 
L 114.223216 124.795657 
L 114.505034 124.795657 
L 114.786852 133.97279 
L 115.06867 130.301937 
L 115.632306 137.643642 
L 116.195943 133.97279 
L 117.041397 133.97279 
L 117.323216 143.149922 
L 117.605034 143.149922 
L 117.886852 146.820775 
L 118.16867 146.820775 
L 118.450488 133.97279 
L 118.732306 132.137363 
L 119.577761 137.643642 
L 119.859579 133.97279 
L 120.423216 144.985348 
L 120.705034 144.985348 
L 120.986852 146.820775 
L 121.26867 141.314495 
L 121.550488 139.479069 
L 121.832306 148.656201 
L 122.114125 144.985348 
L 122.677761 148.656201 
L 123.241397 148.656201 
L 123.523216 152.327054 
L 123.805034 152.327054 
L 124.086852 155.997907 
L 124.932306 155.997907 
L 125.214125 148.656201 
L 125.495943 144.985348 
L 125.777761 144.985348 
L 126.059579 141.314495 
L 126.341397 139.479069 
L 126.905034 139.479069 
L 127.186852 141.314495 
L 127.46867 137.643642 
L 127.750488 135.808216 
L 128.032306 139.479069 
L 128.314125 141.314495 
L 128.595943 137.643642 
L 128.877761 128.46651 
L 129.441397 128.46651 
L 129.723216 130.301937 
L 130.005034 130.301937 
L 130.286852 137.643642 
L 131.132306 137.643642 
L 131.414125 141.314495 
L 131.695943 141.314495 
L 131.977761 144.985348 
L 132.259579 141.314495 
L 132.541397 130.301937 
L 132.823216 135.808216 
L 133.105034 130.301937 
L 133.386852 132.137363 
L 133.66867 124.795657 
L 133.950488 141.314495 
L 134.232306 144.985348 
L 134.514125 143.149922 
L 134.795943 139.479069 
L 135.077761 117.453952 
L 135.359579 117.453952 
L 135.641397 128.46651 
L 135.923216 130.301937 
L 136.486852 110.112246 
L 136.76867 110.112246 
L 137.050488 104.605967 
L 138.459579 104.605967 
L 138.741397 124.795657 
L 139.023216 128.46651 
L 139.86867 144.985348 
L 140.150488 143.149922 
L 140.432306 148.656201 
L 140.714125 144.985348 
L 140.995943 137.643642 
L 141.277761 141.314495 
L 141.841397 144.985348 
L 142.123216 141.314495 
L 142.405034 139.479069 
L 142.686852 135.808216 
L 143.532306 135.808216 
L 143.814125 143.149922 
L 144.095943 143.149922 
L 144.377761 135.808216 
L 144.659579 135.808216 
L 144.941397 146.820775 
L 145.223216 146.820775 
L 145.505034 137.643642 
L 145.786852 137.643642 
L 146.06867 141.314495 
L 146.350488 141.314495 
L 146.632306 143.149922 
L 147.195943 143.149922 
L 147.477761 141.314495 
L 147.759579 135.808216 
L 148.041397 135.808216 
L 148.323216 141.314495 
L 148.605034 139.479069 
L 148.886852 133.97279 
L 149.16867 135.808216 
L 149.450488 135.808216 
L 149.732306 132.137363 
L 150.014125 108.276819 
L 150.295943 108.276819 
L 150.577761 130.301937 
L 150.859579 130.301937 
L 151.141397 146.820775 
L 151.423216 146.820775 
L 151.705034 152.327054 
L 151.986852 152.327054 
L 152.26867 139.479069 
L 152.550488 144.985348 
L 153.114125 141.314495 
L 153.395943 141.314495 
L 153.677761 146.820775 
L 153.959579 146.820775 
L 154.241397 143.149922 
L 154.523216 133.97279 
L 154.805034 132.137363 
L 155.086852 132.137363 
L 155.36867 126.631084 
L 155.650488 130.301937 
L 155.932306 121.124805 
L 156.214125 124.795657 
L 156.495943 133.97279 
L 157.059579 133.97279 
L 157.341397 139.479069 
L 157.623216 139.479069 
L 157.905034 144.985348 
L 158.186852 144.985348 
L 158.46867 155.997907 
L 158.750488 155.997907 
L 159.032306 143.149922 
L 159.314125 141.314495 
L 159.595943 137.643642 
L 160.159579 137.643642 
L 160.723216 148.656201 
L 161.005034 148.656201 
L 161.56867 139.479069 
L 162.132306 132.137363 
L 162.414125 132.137363 
L 162.695943 133.97279 
L 162.977761 133.97279 
L 163.259579 137.643642 
L 163.541397 135.808216 
L 163.823216 135.808216 
L 164.105034 152.327054 
L 164.386852 152.327054 
L 164.66867 157.833333 
L 164.950488 157.833333 
L 165.232306 159.66876 
L 165.514125 159.66876 
L 165.795943 150.491627 
L 166.077761 146.820775 
L 166.359579 148.656201 
L 166.641397 152.327054 
L 166.923216 148.656201 
L 167.205034 150.491627 
L 167.486852 148.656201 
L 167.76867 143.149922 
L 168.332306 124.795657 
L 168.614125 97.264261 
L 168.895943 84.416276 
L 169.177761 95.428834 
L 169.459579 100.935114 
L 169.741397 111.947672 
L 170.023216 113.783099 
L 170.305034 122.960231 
L 170.586852 122.960231 
L 170.86867 137.643642 
M 171.432306 137.643642 
L 171.714125 137.643642 
L 171.995943 152.327054 
L 172.277761 152.327054 
L 172.559579 141.314495 
L 172.841397 143.149922 
L 173.405034 150.491627 
L 173.686852 152.327054 
L 174.532306 133.97279 
L 174.814125 122.960231 
L 175.095943 121.124805 
L 175.659579 110.112246 
L 175.941397 110.112246 
L 176.505034 117.453952 
L 176.786852 124.795657 
L 177.06867 122.960231 
L 177.350488 122.960231 
L 177.632306 135.808216 
L 177.914125 135.808216 
L 178.195943 148.656201 
L 178.477761 148.656201 
L 178.759579 155.997907 
L 179.041397 155.997907 
L 179.323216 154.16248 
L 179.605034 154.16248 
L 179.886852 152.327054 
L 180.16867 152.327054 
L 180.450488 155.997907 
L 180.732306 152.327054 
L 181.014125 150.491627 
L 181.295943 146.820775 
L 182.423216 110.112246 
L 182.705034 108.276819 
L 182.986852 108.276819 
L 183.550488 119.289378 
L 183.832306 128.46651 
L 184.114125 128.46651 
L 184.395943 135.808216 
L 184.677761 135.808216 
L 184.959579 146.820775 
L 185.241397 146.820775 
L 185.523216 157.833333 
L 185.805034 157.833333 
L 186.086852 163.339612 
L 186.36867 163.339612 
L 186.650488 167.010465 
L 186.932306 167.010465 
L 187.495943 163.339612 
L 188.059579 150.491627 
L 188.905034 144.985348 
L 189.186852 146.820775 
L 189.46867 143.149922 
L 189.750488 146.820775 
L 190.032306 148.656201 
L 190.314125 144.985348 
L 190.595943 146.820775 
L 191.441397 146.820775 
L 191.723216 150.491627 
L 192.005034 150.491627 
L 192.286852 159.66876 
L 192.56867 159.66876 
L 192.850488 161.504186 
L 193.695943 161.504186 
L 193.977761 165.175039 
L 194.259579 163.339612 
L 194.541397 163.339612 
L 194.823216 157.833333 
L 195.105034 157.833333 
L 195.386852 154.16248 
L 196.514125 154.16248 
L 196.795943 152.327054 
L 197.077761 157.833333 
L 197.359579 159.66876 
L 197.641397 159.66876 
L 197.923216 165.175039 
L 198.76867 165.175039 
L 199.050488 167.010465 
L 199.332306 167.010465 
L 199.614125 159.66876 
L 199.895943 157.833333 
L 200.459579 157.833333 
L 200.741397 155.997907 
L 201.023216 155.997907 
L 201.305034 143.149922 
L 201.586852 144.985348 
L 201.86867 141.314495 
L 202.150488 139.479069 
L 202.714125 148.656201 
L 202.995943 141.314495 
L 203.559579 141.314495 
L 203.841397 137.643642 
M 204.405034 148.656201 
L 204.686852 146.820775 
L 204.96867 146.820775 
L 205.250488 152.327054 
L 205.532306 152.327054 
L 205.814125 155.997907 
L 206.095943 155.997907 
L 206.377761 150.491627 
L 206.659579 154.16248 
L 206.941397 155.997907 
L 207.223216 161.504186 
L 207.786852 161.504186 
L 208.06867 157.833333 
L 208.350488 170.681318 
L 208.632306 167.010465 
L 208.914125 185.36473 
L 209.195943 189.035582 
L 209.477761 185.36473 
L 210.041397 185.36473 
L 210.323216 183.529303 
L 210.605034 183.529303 
L 210.886852 185.36473 
L 211.16867 185.36473 
L 211.450488 192.706435 
L 211.732306 192.706435 
L 212.014125 194.541862 
L 213.141397 194.541862 
L 213.423216 190.871009 
L 213.705034 189.035582 
L 213.986852 185.36473 
L 215.114125 157.833333 
L 215.395943 154.16248 
L 215.677761 154.16248 
L 215.959579 144.985348 
L 216.241397 139.479069 
L 216.523216 143.149922 
L 216.805034 143.149922 
L 217.086852 144.985348 
L 217.36867 144.985348 
L 217.650488 152.327054 
L 217.932306 152.327054 
L 218.214125 161.504186 
L 218.495943 161.504186 
L 218.777761 172.516745 
L 219.059579 172.516745 
L 219.341397 178.023024 
L 219.623216 178.023024 
L 219.905034 179.85845 
L 220.186852 178.023024 
L 220.46867 179.85845 
L 220.750488 126.631084 
L 221.032306 167.010465 
L 221.314125 165.175039 
L 221.595943 161.504186 
L 221.877761 155.997907 
L 222.159579 155.997907 
L 222.723216 146.820775 
L 223.005034 146.820775 
L 223.56867 133.97279 
L 223.850488 133.97279 
L 224.132306 137.643642 
L 224.414125 146.820775 
L 224.695943 146.820775 
L 224.977761 154.16248 
L 225.259579 154.16248 
L 225.541397 165.175039 
L 225.823216 165.175039 
L 226.105034 174.352171 
L 226.386852 174.352171 
L 226.66867 187.200156 
L 226.950488 190.871009 
L 227.232306 179.85845 
L 227.514125 178.023024 
L 227.795943 172.516745 
L 228.641397 133.97279 
L 228.923216 128.46651 
L 229.486852 137.643642 
L 229.76867 135.808216 
L 230.050488 128.46651 
L 230.332306 124.795657 
L 230.895943 113.783099 
L 231.177761 99.099687 
L 231.459579 99.099687 
L 231.741397 113.783099 
L 232.023216 113.783099 
L 232.305034 115.618525 
L 232.586852 115.618525 
L 232.86867 126.631084 
L 233.150488 126.631084 
L 233.432306 135.808216 
L 233.714125 135.808216 
L 233.995943 139.479069 
L 234.277761 135.808216 
L 234.559579 130.301937 
L 234.841397 128.46651 
L 235.405034 132.137363 
L 235.686852 128.46651 
L 235.96867 133.97279 
L 236.250488 135.808216 
L 236.532306 135.808216 
L 236.814125 132.137363 
L 237.095943 132.137363 
L 237.377761 135.808216 
L 237.659579 143.149922 
L 237.941397 144.985348 
L 238.223216 144.985348 
L 238.505034 155.997907 
L 238.786852 155.997907 
L 239.06867 174.352171 
L 239.350488 174.352171 
L 239.632306 189.035582 
L 239.914125 189.035582 
L 240.195943 185.36473 
L 240.759579 181.693877 
L 241.041397 185.36473 
L 241.605034 165.175039 
L 241.886852 168.845892 
L 242.16867 167.010465 
L 242.450488 163.339612 
L 242.732306 155.997907 
L 243.014125 154.16248 
L 243.295943 150.491627 
L 243.577761 150.491627 
L 243.859579 152.327054 
L 244.141397 157.833333 
L 244.423216 157.833333 
L 244.705034 163.339612 
L 244.986852 163.339612 
L 245.26867 172.516745 
L 245.550488 172.516745 
L 245.832306 179.85845 
L 246.114125 179.85845 
L 246.395943 185.36473 
L 246.677761 185.36473 
L 246.959579 168.845892 
L 247.523216 154.16248 
L 247.805034 130.301937 
L 248.086852 137.643642 
L 248.36867 135.808216 
L 248.932306 126.631084 
L 249.214125 128.46651 
L 249.495943 124.795657 
L 249.777761 124.795657 
L 250.059579 121.124805 
L 250.623216 157.833333 
L 250.905034 161.504186 
L 251.186852 163.339612 
L 251.750488 163.339612 
L 252.032306 170.681318 
L 252.314125 170.681318 
L 252.595943 187.200156 
L 252.877761 187.200156 
L 253.159579 183.529303 
L 253.441397 183.529303 
L 253.723216 190.871009 
L 254.286852 194.541862 
L 254.56867 194.541862 
L 254.850488 185.36473 
L 255.414125 178.023024 
L 255.977761 157.833333 
L 256.259579 157.833333 
L 256.541397 159.66876 
L 257.950488 159.66876 
L 258.232306 163.339612 
L 258.514125 163.339612 
L 258.795943 179.85845 
M 259.359579 187.200156 
L 259.641397 187.200156 
L 259.923216 194.541862 
L 260.205034 194.541862 
L 260.486852 192.706435 
L 260.76867 189.035582 
L 261.050488 194.541862 
L 261.332306 192.706435 
L 261.614125 181.693877 
L 261.895943 181.693877 
L 262.177761 172.516745 
L 262.459579 176.187597 
L 262.741397 174.352171 
L 263.305034 154.16248 
L 263.586852 150.491627 
L 264.150488 150.491627 
L 264.432306 154.16248 
L 264.714125 150.491627 
L 264.995943 155.997907 
L 265.277761 155.997907 
L 265.559579 152.327054 
L 265.841397 152.327054 
L 266.123216 144.985348 
L 266.405034 144.985348 
L 266.686852 152.327054 
L 266.96867 152.327054 
L 267.250488 148.656201 
L 267.532306 152.327054 
L 268.095943 148.656201 
L 268.377761 152.327054 
L 268.941397 144.985348 
L 269.505034 167.010465 
L 269.786852 167.010465 
L 270.06867 155.997907 
L 270.632306 144.985348 
L 270.914125 130.301937 
L 271.195943 128.46651 
L 271.477761 130.301937 
M 272.041397 133.97279 
L 272.323216 143.149922 
M 272.886852 181.693877 
L 273.16867 181.693877 
L 273.450488 189.035582 
L 273.732306 189.035582 
L 274.014125 190.871009 
L 274.577761 187.200156 
L 274.859579 190.871009 
L 275.423216 187.200156 
L 275.705034 179.85845 
L 275.986852 176.187597 
L 276.832306 159.66876 
L 277.114125 157.833333 
L 277.395943 157.833333 
L 277.677761 159.66876 
L 277.959579 163.339612 
L 278.241397 165.175039 
M 278.805034 157.833333 
L 279.086852 176.187597 
L 279.36867 176.187597 
L 279.650488 181.693877 
L 279.932306 181.693877 
L 280.214125 192.706435 
L 280.495943 192.706435 
L 280.777761 185.36473 
L 281.059579 192.706435 
L 281.341397 194.541862 
L 281.623216 194.541862 
L 281.905034 190.871009 
L 282.46867 179.85845 
L 283.032306 163.339612 
L 283.314125 159.66876 
L 283.595943 150.491627 
L 283.877761 146.820775 
L 284.159579 157.833333 
L 284.441397 155.997907 
L 284.723216 155.997907 
L 285.005034 154.16248 
M 285.56867 150.491627 
L 285.850488 155.997907 
L 286.132306 155.997907 
L 286.414125 148.656201 
L 286.695943 148.656201 
L 286.977761 150.491627 
L 287.541397 150.491627 
L 287.823216 154.16248 
L 288.105034 144.985348 
L 288.386852 132.137363 
L 288.66867 111.947672 
L 288.950488 119.289378 
L 289.232306 111.947672 
L 289.514125 100.935114 
L 289.795943 121.124805 
L 290.077761 121.124805 
L 290.359579 137.643642 
L 290.923216 146.820775 
L 291.205034 148.656201 
L 291.486852 146.820775 
L 291.76867 150.491627 
L 292.050488 152.327054 
L 292.332306 152.327054 
L 292.614125 167.010465 
L 292.895943 167.010465 
L 293.177761 165.175039 
L 293.459579 165.175039 
L 293.741397 170.681318 
L 294.023216 170.681318 
L 294.305034 163.339612 
L 294.586852 161.504186 
L 295.150488 152.327054 
L 295.432306 154.16248 
L 295.714125 154.16248 
L 295.995943 152.327054 
L 296.277761 146.820775 
L 296.559579 130.301937 
L 296.841397 137.643642 
L 297.123216 137.643642 
L 297.405034 139.479069 
L 297.686852 137.643642 
L 297.96867 139.479069 
L 298.250488 154.16248 
L 298.532306 154.16248 
L 298.814125 157.833333 
L 299.095943 157.833333 
L 299.377761 167.010465 
M 300.223216 174.352171 
L 300.505034 178.023024 
L 300.786852 178.023024 
L 301.06867 172.516745 
L 301.350488 163.339612 
L 302.195943 148.656201 
L 302.477761 130.301937 
L 302.759579 133.97279 
L 303.041397 133.97279 
L 303.323216 130.301937 
L 303.605034 117.453952 
L 303.886852 111.947672 
L 304.16867 115.618525 
L 304.450488 111.947672 
L 304.732306 133.97279 
L 305.014125 119.289378 
L 305.295943 115.618525 
M 305.859579 130.301937 
L 306.141397 141.314495 
M 306.705034 146.820775 
L 306.986852 146.820775 
L 307.26867 165.175039 
L 307.550488 165.175039 
L 308.114125 155.997907 
L 308.395943 159.66876 
L 308.677761 165.175039 
L 308.959579 161.504186 
L 309.241397 159.66876 
L 309.523216 159.66876 
L 309.805034 165.175039 
L 310.086852 167.010465 
L 310.650488 174.352171 
L 310.932306 167.010465 
L 311.495943 170.681318 
L 312.059579 167.010465 
L 312.623216 167.010465 
L 312.905034 170.681318 
M 313.46867 179.85845 
L 313.750488 179.85845 
L 314.032306 183.529303 
L 314.314125 183.529303 
L 314.595943 170.681318 
L 314.877761 174.352171 
L 315.159579 174.352171 
L 315.441397 168.845892 
L 315.723216 170.681318 
L 316.005034 170.681318 
L 316.286852 167.010465 
L 316.56867 165.175039 
L 316.850488 154.16248 
L 317.132306 148.656201 
L 317.414125 148.656201 
L 317.977761 144.985348 
L 318.259579 146.820775 
L 318.541397 146.820775 
L 318.823216 148.656201 
L 319.105034 146.820775 
L 319.66867 146.820775 
M 320.795943 176.187597 
L 321.077761 176.187597 
L 321.359579 170.681318 
L 321.641397 170.681318 
L 321.923216 179.85845 
L 322.205034 179.85845 
L 322.486852 172.516745 
L 322.76867 168.845892 
L 323.050488 170.681318 
L 323.332306 161.504186 
L 323.614125 163.339612 
L 323.895943 161.504186 
L 324.177761 161.504186 
L 324.741397 154.16248 
L 325.023216 154.16248 
L 325.86867 159.66876 
L 326.150488 159.66876 
L 326.432306 167.010465 
L 326.714125 167.010465 
L 326.995943 172.516745 
L 327.277761 172.516745 
L 327.559579 176.187597 
L 327.841397 176.187597 
L 328.123216 179.85845 
L 328.405034 185.36473 
L 328.686852 187.200156 
L 329.250488 183.529303 
L 329.532306 183.529303 
L 329.814125 176.187597 
L 330.659579 146.820775 
L 330.941397 141.314495 
L 331.223216 141.314495 
L 331.505034 143.149922 
L 331.786852 143.149922 
L 332.06867 144.985348 
L 332.350488 148.656201 
M 332.914125 152.327054 
L 333.195943 163.339612 
L 333.477761 163.339612 
L 333.759579 168.845892 
L 334.041397 168.845892 
L 334.323216 174.352171 
L 334.605034 174.352171 
L 335.16867 170.681318 
L 335.450488 170.681318 
L 335.732306 174.352171 
L 336.295943 174.352171 
L 336.295943 174.352171 
" style="fill:none;stroke:#2ca02c;stroke-linecap:square;stroke-width:1.5;"/>
   </g>
   <g id="patch_3">
    <path d="M 40.950488 203.44368 
L 40.950488 7.60368 
" style="fill:none;stroke:#000000;stroke-linecap:square;stroke-linejoin:miter;stroke-width:0.8;"/>
   </g>
   <g id="patch_4">
    <path d="M 375.750488 203.44368 
L 375.750488 7.60368 
" style="fill:none;stroke:#000000;stroke-linecap:square;stroke-linejoin:miter;stroke-width:0.8;"/>
   </g>
   <g id="patch_5">
    <path d="M 40.950488 203.44368 
L 375.750488 203.44368 
" style="fill:none;stroke:#000000;stroke-linecap:square;stroke-linejoin:miter;stroke-width:0.8;"/>
   </g>
   <g id="patch_6">
    <path d="M 40.950488 7.60368 
L 375.750488 7.60368 
" style="fill:none;stroke:#000000;stroke-linecap:square;stroke-linejoin:miter;stroke-width:0.8;"/>
   </g>
   <g id="legend_1">
    <g id="patch_7">
     <path d="M 256.161426 60.47243 
L 368.750488 60.47243 
Q 370.750488 60.47243 370.750488 58.47243 
L 370.750488 14.60368 
Q 370.750488 12.60368 368.750488 12.60368 
L 256.161426 12.60368 
Q 254.161426 12.60368 254.161426 14.60368 
L 254.161426 58.47243 
Q 254.161426 60.47243 256.161426 60.47243 
z
" style="fill:#ffffff;opacity:0.8;stroke:#cccccc;stroke-linejoin:miter;"/>
    </g>
    <g id="line2d_17">
     <path d="M 258.161426 20.702117 
L 278.161426 20.702117 
" style="fill:none;stroke:#1f77b4;stroke-linecap:square;stroke-width:1.5;"/>
    </g>
    <g id="line2d_18"/>
    <g id="text_15">
     <!-- station_antwerp -->
     <g transform="translate(286.161426 24.202117)scale(0.1 -0.1)">
      <defs>
       <path d="M 44.28125 53.078125 
L 44.28125 44.578125 
Q 40.484375 46.53125 36.375 47.5 
Q 32.28125 48.484375 27.875 48.484375 
Q 21.1875 48.484375 17.84375 46.4375 
Q 14.5 44.390625 14.5 40.28125 
Q 14.5 37.15625 16.890625 35.375 
Q 19.28125 33.59375 26.515625 31.984375 
L 29.59375 31.296875 
Q 39.15625 29.25 43.1875 25.515625 
Q 47.21875 21.78125 47.21875 15.09375 
Q 47.21875 7.46875 41.1875 3.015625 
Q 35.15625 -1.421875 24.609375 -1.421875 
Q 20.21875 -1.421875 15.453125 -0.5625 
Q 10.6875 0.296875 5.421875 2 
L 5.421875 11.28125 
Q 10.40625 8.6875 15.234375 7.390625 
Q 20.0625 6.109375 24.8125 6.109375 
Q 31.15625 6.109375 34.5625 8.28125 
Q 37.984375 10.453125 37.984375 14.40625 
Q 37.984375 18.0625 35.515625 20.015625 
Q 33.0625 21.96875 24.703125 23.78125 
L 21.578125 24.515625 
Q 13.234375 26.265625 9.515625 29.90625 
Q 5.8125 33.546875 5.8125 39.890625 
Q 5.8125 47.609375 11.28125 51.796875 
Q 16.75 56 26.8125 56 
Q 31.78125 56 36.171875 55.265625 
Q 40.578125 54.546875 44.28125 53.078125 
z
" id="DejaVuSans-115"/>
       <path d="M 30.609375 48.390625 
Q 23.390625 48.390625 19.1875 42.75 
Q 14.984375 37.109375 14.984375 27.296875 
Q 14.984375 17.484375 19.15625 11.84375 
Q 23.34375 6.203125 30.609375 6.203125 
Q 37.796875 6.203125 41.984375 11.859375 
Q 46.1875 17.53125 46.1875 27.296875 
Q 46.1875 37.015625 41.984375 42.703125 
Q 37.796875 48.390625 30.609375 48.390625 
z
M 30.609375 56 
Q 42.328125 56 49.015625 48.375 
Q 55.71875 40.765625 55.71875 27.296875 
Q 55.71875 13.875 49.015625 6.21875 
Q 42.328125 -1.421875 30.609375 -1.421875 
Q 18.84375 -1.421875 12.171875 6.21875 
Q 5.515625 13.875 5.515625 27.296875 
Q 5.515625 40.765625 12.171875 48.375 
Q 18.84375 56 30.609375 56 
z
" id="DejaVuSans-111"/>
       <path d="M 54.890625 33.015625 
L 54.890625 0 
L 45.90625 0 
L 45.90625 32.71875 
Q 45.90625 40.484375 42.875 44.328125 
Q 39.84375 48.1875 33.796875 48.1875 
Q 26.515625 48.1875 22.3125 43.546875 
Q 18.109375 38.921875 18.109375 30.90625 
L 18.109375 0 
L 9.078125 0 
L 9.078125 54.6875 
L 18.109375 54.6875 
L 18.109375 46.1875 
Q 21.34375 51.125 25.703125 53.5625 
Q 30.078125 56 35.796875 56 
Q 45.21875 56 50.046875 50.171875 
Q 54.890625 44.34375 54.890625 33.015625 
z
" id="DejaVuSans-110"/>
       <path d="M 50.984375 -16.609375 
L 50.984375 -23.578125 
L -0.984375 -23.578125 
L -0.984375 -16.609375 
z
" id="DejaVuSans-95"/>
       <path d="M 4.203125 54.6875 
L 13.1875 54.6875 
L 24.421875 12.015625 
L 35.59375 54.6875 
L 46.1875 54.6875 
L 57.421875 12.015625 
L 68.609375 54.6875 
L 77.59375 54.6875 
L 63.28125 0 
L 52.6875 0 
L 40.921875 44.828125 
L 29.109375 0 
L 18.5 0 
z
" id="DejaVuSans-119"/>
       <path d="M 41.109375 46.296875 
Q 39.59375 47.171875 37.8125 47.578125 
Q 36.03125 48 33.890625 48 
Q 26.265625 48 22.1875 43.046875 
Q 18.109375 38.09375 18.109375 28.8125 
L 18.109375 0 
L 9.078125 0 
L 9.078125 54.6875 
L 18.109375 54.6875 
L 18.109375 46.1875 
Q 20.953125 51.171875 25.484375 53.578125 
Q 30.03125 56 36.53125 56 
Q 37.453125 56 38.578125 55.875 
Q 39.703125 55.765625 41.0625 55.515625 
z
" id="DejaVuSans-114"/>
       <path d="M 18.109375 8.203125 
L 18.109375 -20.796875 
L 9.078125 -20.796875 
L 9.078125 54.6875 
L 18.109375 54.6875 
L 18.109375 46.390625 
Q 20.953125 51.265625 25.265625 53.625 
Q 29.59375 56 35.59375 56 
Q 45.5625 56 51.78125 48.09375 
Q 58.015625 40.1875 58.015625 27.296875 
Q 58.015625 14.40625 51.78125 6.484375 
Q 45.5625 -1.421875 35.59375 -1.421875 
Q 29.59375 -1.421875 25.265625 0.953125 
Q 20.953125 3.328125 18.109375 8.203125 
z
M 48.6875 27.296875 
Q 48.6875 37.203125 44.609375 42.84375 
Q 40.53125 48.484375 33.40625 48.484375 
Q 26.265625 48.484375 22.1875 42.84375 
Q 18.109375 37.203125 18.109375 27.296875 
Q 18.109375 17.390625 22.1875 11.75 
Q 26.265625 6.109375 33.40625 6.109375 
Q 40.53125 6.109375 44.609375 11.75 
Q 48.6875 17.390625 48.6875 27.296875 
z
" id="DejaVuSans-112"/>
      </defs>
      <use xlink:href="#DejaVuSans-115"/>
      <use x="52.099609" xlink:href="#DejaVuSans-116"/>
      <use x="91.308594" xlink:href="#DejaVuSans-97"/>
      <use x="152.587891" xlink:href="#DejaVuSans-116"/>
      <use x="191.796875" xlink:href="#DejaVuSans-105"/>
      <use x="219.580078" xlink:href="#DejaVuSans-111"/>
      <use x="280.761719" xlink:href="#DejaVuSans-110"/>
      <use x="344.140625" xlink:href="#DejaVuSans-95"/>
      <use x="394.140625" xlink:href="#DejaVuSans-97"/>
      <use x="455.419922" xlink:href="#DejaVuSans-110"/>
      <use x="518.798828" xlink:href="#DejaVuSans-116"/>
      <use x="558.007812" xlink:href="#DejaVuSans-119"/>
      <use x="639.794922" xlink:href="#DejaVuSans-101"/>
      <use x="701.318359" xlink:href="#DejaVuSans-114"/>
      <use x="742.431641" xlink:href="#DejaVuSans-112"/>
     </g>
    </g>
    <g id="line2d_19">
     <path d="M 258.161426 35.658367 
L 278.161426 35.658367 
" style="fill:none;stroke:#ff7f0e;stroke-linecap:square;stroke-width:1.5;"/>
    </g>
    <g id="line2d_20"/>
    <g id="text_16">
     <!-- station_paris -->
     <g transform="translate(286.161426 39.158367)scale(0.1 -0.1)">
      <use xlink:href="#DejaVuSans-115"/>
      <use x="52.099609" xlink:href="#DejaVuSans-116"/>
      <use x="91.308594" xlink:href="#DejaVuSans-97"/>
      <use x="152.587891" xlink:href="#DejaVuSans-116"/>
      <use x="191.796875" xlink:href="#DejaVuSans-105"/>
      <use x="219.580078" xlink:href="#DejaVuSans-111"/>
      <use x="280.761719" xlink:href="#DejaVuSans-110"/>
      <use x="344.140625" xlink:href="#DejaVuSans-95"/>
      <use x="394.140625" xlink:href="#DejaVuSans-112"/>
      <use x="457.617188" xlink:href="#DejaVuSans-97"/>
      <use x="518.896484" xlink:href="#DejaVuSans-114"/>
      <use x="560.009766" xlink:href="#DejaVuSans-105"/>
      <use x="587.792969" xlink:href="#DejaVuSans-115"/>
     </g>
    </g>
    <g id="line2d_21">
     <path d="M 258.161426 50.614617 
L 278.161426 50.614617 
" style="fill:none;stroke:#2ca02c;stroke-linecap:square;stroke-width:1.5;"/>
    </g>
    <g id="line2d_22"/>
    <g id="text_17">
     <!-- station_london -->
     <g transform="translate(286.161426 54.114617)scale(0.1 -0.1)">
      <defs>
       <path d="M 9.421875 75.984375 
L 18.40625 75.984375 
L 18.40625 0 
L 9.421875 0 
z
" id="DejaVuSans-108"/>
      </defs>
      <use xlink:href="#DejaVuSans-115"/>
      <use x="52.099609" xlink:href="#DejaVuSans-116"/>
      <use x="91.308594" xlink:href="#DejaVuSans-97"/>
      <use x="152.587891" xlink:href="#DejaVuSans-116"/>
      <use x="191.796875" xlink:href="#DejaVuSans-105"/>
      <use x="219.580078" xlink:href="#DejaVuSans-111"/>
      <use x="280.761719" xlink:href="#DejaVuSans-110"/>
      <use x="344.140625" xlink:href="#DejaVuSans-95"/>
      <use x="394.140625" xlink:href="#DejaVuSans-108"/>
      <use x="421.923828" xlink:href="#DejaVuSans-111"/>
      <use x="483.105469" xlink:href="#DejaVuSans-110"/>
      <use x="546.484375" xlink:href="#DejaVuSans-100"/>
      <use x="609.960938" xlink:href="#DejaVuSans-111"/>
      <use x="671.142578" xlink:href="#DejaVuSans-110"/>
     </g>
    </g>
   </g>
  </g>
 </g>
 <defs>
  <clipPath id="pb1a53dcfcb">
   <rect height="195.84" width="334.8" x="40.950488" y="7.60368"/>
  </clipPath>
 </defs>
</svg>
